<?xml version="1.0" encoding="UTF-8"?>
<svg version="1.1" xmlns="http://www.w3.org/2000/svg" width="600" height="600">
<path d="M0 0 C3.79401205 0.54200172 5.19215244 2.0050566 7.5625 4.9375 C9.67531519 7.53028657 11.17546286 9.11697524 14 11 C13.41418953 14.31236042 12.37630663 15.96502048 10.0625 18.375 C5.47443782 23.57920482 4.47303234 28.63167655 4.6171875 35.46875 C5.43880674 40.9014976 8.58780206 44.58780206 12.375 48.375 C19.09988401 52.53802343 26.12175342 52.31884345 33.8046875 52.37890625 C34.92440948 52.39590073 36.04413147 52.4128952 37.19778442 52.43040466 C40.75679978 52.48333635 44.31580398 52.52377125 47.875 52.5625 C51.45556312 52.60639356 55.03603529 52.65299711 58.6164856 52.70530701 C60.84108622 52.7373341 63.06576798 52.76420211 65.29049683 52.78553772 C66.78808029 52.80577248 66.78808029 52.80577248 68.31591797 52.82641602 C69.19859344 52.83592789 70.08126892 52.84543976 70.99069214 52.85523987 C73 53 73 53 74 54 C74.10713806 55.57862237 74.14622398 57.16192853 74.15771484 58.74414062 C74.16797699 59.75609497 74.17823914 60.76804932 74.18881226 61.81066895 C74.19611359 62.91471069 74.20341492 64.01875244 74.2109375 65.15625 C74.23902648 67.48177763 74.26769106 69.80729836 74.296875 72.1328125 C74.33800716 75.80826476 74.37488176 79.48359113 74.40136719 83.15917969 C74.42911319 86.70014346 74.4750102 90.24051651 74.5234375 93.78125 C74.52669037 94.8690979 74.52994324 95.9569458 74.53329468 97.07775879 C74.65565346 104.73823645 75.76523229 111.1321328 79.625 117.8125 C84.34718909 122.16188469 89.65596825 124.21372971 96.0625 124.5 C102.39187118 124.21453847 107.02647012 122.07739987 111.375 117.5 C114.46504986 112.74607714 115.36850005 109.10981326 115.625 103.4375 C115.68409546 102.37764893 115.68409546 102.37764893 115.74438477 101.29638672 C116.00732863 96.20278852 116.03237695 91.13734161 115.83984375 86.0390625 C116 84 116 84 118 82 C118.68449219 82.70640625 119.36898437 83.4128125 120.07421875 84.140625 C122.07453309 86.14728955 124.1475562 87.99309945 126.33203125 89.796875 C135.34513576 97.34801738 135.34513576 97.34801738 136.94921875 101.39453125 C137.00575257 103.8080903 136.6526097 105.67607277 136 108 C135.80921875 108.8971875 135.6184375 109.794375 135.421875 110.71875 C132.54337365 122.90217434 126.7506489 132.67311005 115.9375 139.4375 C106.28331948 145.07579844 94.56174545 145.52513465 83.765625 143.34765625 C72.73628312 139.71794345 63.97957342 131.78980328 58.71484375 121.484375 C55.40062641 113.73932228 54.84118644 106.10437204 54.90234375 97.78125 C54.9037587 97.03790405 54.90517365 96.29455811 54.90663147 95.52868652 C54.91216891 93.18574771 54.92470909 90.84290927 54.9375 88.5 C54.94252311 86.89843889 54.94708458 85.29687627 54.95117188 83.6953125 C54.96211773 79.79683712 54.97933804 75.8984355 55 72 C53.95658447 72.01047363 52.91316895 72.02094727 51.83813477 72.03173828 C47.92996718 72.06821189 44.02181434 72.09099906 40.11352539 72.10986328 C38.42892925 72.11985897 36.74435019 72.13346004 35.05981445 72.15087891 C32.62446859 72.17541276 30.18935408 72.18654758 27.75390625 72.1953125 C27.01290176 72.20563507 26.27189728 72.21595764 25.50843811 72.22659302 C13.58884125 72.22909361 4.44146262 68.37867957 -4.3125 60.25 C-11.52930634 52.59581145 -14.46849262 43.48439009 -15.3125 33.1875 C-14.9041349 19.54810575 -9.13629083 9.57980009 0 0 Z " fill="#B75B30" transform="translate(204,201)"/>
<path d="M0 0 C9.58511866 6.71610355 15.50589795 15.59159805 18 27 C18.15110957 29.83388831 18.25631534 32.64860548 18.31640625 35.484375 C18.33718735 36.29996887 18.35796844 37.11556274 18.37937927 37.95587158 C18.44461297 40.55383105 18.50363768 43.15188913 18.5625 45.75 C18.60571014 47.514333 18.64932522 49.27865613 18.69335938 51.04296875 C18.80026745 55.36187884 18.90160827 59.68088784 19 64 C20.13429443 64.01458252 21.26858887 64.02916504 22.43725586 64.04418945 C26.68121475 64.1025494 30.9246638 64.17977728 35.16821289 64.26245117 C36.99820628 64.29552431 38.82829737 64.32360999 40.65844727 64.34643555 C43.30266613 64.38030807 45.94600379 64.43263641 48.58984375 64.48828125 C49.39646957 64.49467117 50.2030954 64.5010611 51.03416443 64.50764465 C61.54355866 64.7742986 70.36779656 68.63440974 77.98046875 75.88671875 C85.80616521 84.37985201 88.17897709 92.19861887 88.1875 103.5 C88.19974609 104.35464844 88.21199219 105.20929688 88.22460938 106.08984375 C88.22654297 106.91613281 88.22847656 107.74242187 88.23046875 108.59375 C88.23457764 109.34333984 88.23868652 110.09292969 88.24291992 110.86523438 C87.96836704 113.27798857 87.19750325 114.90459178 86 117 C85.45601562 116.71769531 84.91203125 116.43539062 84.3515625 116.14453125 C81.96883074 114.94361855 81.96883074 114.94361855 79.2734375 113.94921875 C76.09334335 112.56489205 73.62712274 111.27966457 71 109 C69.91740332 105.65769756 69.63012697 102.62968624 69.36328125 99.1328125 C68.84459297 94.65982327 67.2639445 92.0295655 64 89 C55.80698389 82.89539976 46.42195384 83.87893668 36.58984375 84.0625 C33.95987961 84.01671172 31.61331679 83.84531149 29.02954102 83.5 C23.33032244 82.84485309 17.6672455 82.89050524 11.9375 82.9375 C10.88111328 82.94201172 9.82472656 82.94652344 8.73632812 82.95117188 C6.15749092 82.96284082 3.57877706 82.97921115 1 83 C0.99453156 82.07491135 0.99453156 82.07491135 0.98895264 81.13113403 C0.94692682 74.67363696 0.87744194 68.21683741 0.79248047 61.75976562 C0.76437023 59.35456338 0.74310658 56.94927047 0.72900391 54.54394531 C0.70743692 51.07309886 0.66071413 47.60333127 0.609375 44.1328125 C0.60814636 43.06886261 0.60691772 42.00491272 0.60565186 40.90872192 C0.45301727 33.01093447 -0.9265692 25.88222838 -5.9296875 19.5625 C-11.48414963 15.10108463 -15.57860296 12.71770075 -22.875 13.0625 C-29.00607542 13.87383028 -33.67419812 16.08406928 -37.5703125 20.96875 C-40.86544495 26.01500998 -42.10488856 30.08462102 -42.18945312 36.11987305 C-42.20617065 37.13740158 -42.22288818 38.15493011 -42.2401123 39.20329285 C-42.25368774 40.29507339 -42.26726318 41.38685394 -42.28125 42.51171875 C-42.29965942 43.63568558 -42.31806885 44.7596524 -42.33703613 45.91767883 C-42.41577381 50.72993402 -42.48368504 55.54232702 -42.55224609 60.35473633 C-42.60380846 63.86547116 -42.66110212 67.37607945 -42.71875 70.88671875 C-42.73232544 71.98457199 -42.74590088 73.08242523 -42.7598877 74.21354675 C-42.77660522 75.2216188 -42.79332275 76.22969086 -42.81054688 77.26831055 C-42.82933899 78.60589668 -42.82933899 78.60589668 -42.84851074 79.97050476 C-43 82 -43 82 -44 83 C-45.34267413 83.08631874 -46.68974322 83.10706473 -48.03515625 83.09765625 C-48.84404297 83.09443359 -49.65292969 83.09121094 -50.48632812 83.08789062 C-51.33646484 83.07951172 -52.18660156 83.07113281 -53.0625 83.0625 C-53.91650391 83.05798828 -54.77050781 83.05347656 -55.65039062 83.04882812 C-57.76695663 83.03700373 -59.88348685 83.01906769 -62 83 C-61.70480469 82.2678125 -61.40960938 81.535625 -61.10546875 80.78125 C-60.55826172 79.40453125 -60.55826172 79.40453125 -60 78 C-59.70738281 77.2884375 -59.41476562 76.576875 -59.11328125 75.84375 C-56.88571771 69.32405184 -56.83033586 63.23689007 -57.125 56.4375 C-57.15891846 55.56351563 -57.19283691 54.68953125 -57.2277832 53.7890625 C-57.55509001 48.28824633 -58.57583688 43.41648996 -60.33178711 38.19287109 C-62.74302702 30.27991645 -60.07410056 22.37784133 -57 15 C-51.21743722 5.38147973 -42.95769346 -1.48285686 -32.11206055 -4.53051758 C-21.32846126 -6.92756548 -9.4347941 -5.73033507 0 0 Z " fill="#5B2514" transform="translate(321,128)"/>
<path d="M0 0 C1.19625 0.556875 2.3925 1.11375 3.625 1.6875 C10.0288689 5.49248937 12.5274621 12.40814387 14.37109375 19.30859375 C16.94927196 30.3419154 19.17659584 41.91038878 13.4375 52.3125 C12.64876415 53.5570492 11.84516805 54.79306259 11 56 C10.34 56 9.68 56 9 56 C9.23396484 56.90492188 9.23396484 56.90492188 9.47265625 57.828125 C9.76462891 59.02695313 9.76462891 59.02695313 10.0625 60.25 C10.25972656 61.03890625 10.45695312 61.8278125 10.66015625 62.640625 C11 65 11 65 10.4609375 67.11328125 C9.71637987 69.25290462 9.71637987 69.25290462 11.5625 71.9375 C15.31310381 76.64979709 19.14151623 80.162529 25 82 C28.64334388 82.27873894 28.64334388 82.27873894 32.5 82.1875 C33.7890625 82.18105469 35.078125 82.17460937 36.40625 82.16796875 C39.42066011 82.02707784 42.07087269 81.6605899 45 81 C52.73591202 80.40492984 59.15007739 82.17725728 65.1875 87.0625 C71.07087446 92.65576724 74.35644065 99.64901668 77.86010742 106.85449219 C82.65835286 116.70261105 88.08363189 125.3310184 96 133 C96 133.66 96 134.32 96 135 C96.57621094 135.27714844 97.15242187 135.55429687 97.74609375 135.83984375 C100.65563886 137.33747789 103.35213768 139.1030142 106.09765625 140.87890625 C111.5491438 144.09158988 117.89434921 143.60416801 124 143 C133.49768426 140.04548517 139.65298334 131.72999538 144.3125 123.375 C145.22118531 121.58981715 146.11847527 119.79874983 147 118 C147.34160156 117.37222656 147.68320312 116.74445313 148.03515625 116.09765625 C150.34183987 111.53793282 151.3233419 105.97994453 150 101 C146.10450016 98.05982943 142.85398815 97.51573181 138.046875 97.15625 C137.38721741 97.10102173 136.72755981 97.04579346 136.0479126 96.9888916 C133.9493705 96.81381175 131.8501083 96.65508046 129.75 96.5 C114.3326296 95.34987778 114.3326296 95.34987778 108.765625 93.34375 C104.99380982 91.99779106 104.49310984 91.87868314 101 93 C94.92977089 94.20785171 90.15962819 94.57793293 84.69140625 91.36328125 C80.71624523 88.15928311 79.33638623 84.34554492 78.125 79.5 C77.93113173 74.07168832 79.01784508 69.95647477 82.375 65.6875 C86.21494768 61.756125 88.89697562 60.70172303 94.375 60.625 C100.74085956 60.75214766 103.70374501 62.88992784 108.3125 67.125 C111.57381756 72.68131881 111.43939709 78.84685215 110 85 C113.20804752 85.3154779 116.41647244 85.62694447 119.625 85.9375 C121.05912231 86.0778064 121.05912231 86.0778064 122.5222168 86.22094727 C127.95254401 86.74283947 133.36512194 87.15235916 138.8125 87.4375 C145.79184204 87.93307458 151.16711786 89.02674393 156.4375 93.9375 C159.63798811 97.7624736 160.37355741 100.76929906 160.27734375 105.76171875 C158.36628702 121.18475403 149.41683366 136.21957117 137.4375 145.9375 C129.78162794 151.48050788 122.0226423 153.72375058 112.57421875 152.75 C98.31466004 149.99167431 87.76901949 139.40234437 79.484375 127.98828125 C75.17459056 121.37692705 71.67688922 114.20981385 68.13525391 107.16381836 C64.44513635 99.99751076 61.07282578 93.69094193 53 91 C47.13098732 90.60090714 41.28468859 91.131368 35.4375 91.625 C24.99625718 92.32807866 18.14616651 90.7662148 10 84 C6.88950888 80.9191326 3.90020554 77.84117511 1.96484375 73.8828125 C1.03199108 71.74539823 1.03199108 71.74539823 -1.5 70 C-4 68 -4 68 -4.8984375 65.90625 C-5.26195312 65.2771875 -5.62546875 64.648125 -6 64 C-7.9221267 63.44546687 -7.9221267 63.44546687 -10.125 63.5 C-18.78905323 62.86232568 -25.12396941 58.17210965 -31 52 C-37.14961916 44.48130504 -43.81976001 36.09343945 -44 26 C-43.35450212 24.06350636 -42.69617368 22.12610248 -41.8828125 20.25390625 C-40.84586276 17.60647262 -40.26001779 14.9574914 -39.625 12.1875 C-38.70081458 8.75276965 -38.30030186 7.30030186 -35.75 4.75 C-31.54532941 3.60327166 -27.95281506 3.8934048 -24.125 6.0625 C-22.28052263 9.23909991 -21.65805853 12.3383768 -22 16 C-24 19 -24 19 -27 21 C-30.8125 21.3125 -30.8125 21.3125 -34 21 C-35.64830047 28.19258385 -34.00410418 32.79765248 -30.14453125 38.96484375 C-24.99009735 46.34526327 -19.57450334 52.7763849 -10.35546875 54.4921875 C-6.12019642 54.70807844 -3.47404534 54.22824405 0.375 52.375 C4.35931743 48.77014138 6.76267485 45.75284248 7.49609375 40.3359375 C7.33903102 24.05621566 7.33903102 24.05621566 0 10 C-1.86259537 8.67948503 -1.86259537 8.67948503 -4 9 C-4.78375 9.639375 -5.5675 10.27875 -6.375 10.9375 C-9 13 -9 13 -12 13.5625 C-16.13607554 12.78698584 -17.54999553 11.38677089 -20 8 C-20.53416903 4.19404569 -20.55569356 2.00554073 -18.6875 -1.375 C-13.33334873 -6.53084937 -5.72902763 -2.76220975 0 0 Z " fill="#B46038" transform="translate(245,152)"/>
<path d="M0 0 C29.83665266 0.34045973 29.83665266 0.34045973 37.328125 6.79296875 C41.41951945 11.32033146 42.94136636 16.86407725 43.07421875 22.88671875 C42.51592707 30.7740736 40.00689405 35.95244601 34.015625 41.23046875 C28.61298133 44.92007906 24.55594107 45.35563958 18.0625 45.328125 C17.40227844 45.32671005 16.74205688 45.3252951 16.06182861 45.32383728 C13.96304706 45.3182612 11.86437405 45.30571322 9.765625 45.29296875 C8.33854321 45.28795065 6.91145975 45.28338829 5.484375 45.27929688 C1.99475668 45.26829963 -1.49479856 45.25105155 -4.984375 45.23046875 C-5.03371654 39.14324129 -5.07006667 33.05612955 -5.09423828 26.96875 C-5.10431212 24.89678928 -5.11797166 22.82484282 -5.13525391 20.75292969 C-5.15944164 17.77926111 -5.17084408 14.80578005 -5.1796875 11.83203125 C-5.19001007 10.90178131 -5.20033264 9.97153137 -5.21096802 9.01309204 C-5.21111908 8.15235077 -5.21127014 7.2916095 -5.21142578 6.40478516 C-5.215867 5.645336 -5.22030823 4.88588684 -5.22488403 4.10342407 C-4.77935949 0.63391794 -3.27472546 0.2528911 0 0 Z M10.015625 12.23046875 C9.98674988 15.87628562 9.96886915 19.52207338 9.953125 23.16796875 C9.94474609 24.20888672 9.93636719 25.24980469 9.92773438 26.32226562 C9.92451172 27.31162109 9.92128906 28.30097656 9.91796875 29.3203125 C9.91273193 30.23675537 9.90749512 31.15319824 9.90209961 32.09741211 C9.77641289 34.21409898 9.77641289 34.21409898 11.015625 35.23046875 C17.43957362 35.17737827 22.06000346 33.98225432 26.828125 29.54296875 C28.58496927 26.1217457 28.79783164 22.93528385 28.015625 19.23046875 C26.26263206 16.21142535 24.18540099 13.81535674 21.015625 12.23046875 C19.14182895 12.16013106 17.26561398 12.14616655 15.390625 12.16796875 C13.88628906 12.18150391 13.88628906 12.18150391 12.3515625 12.1953125 C11.19527344 12.21271484 11.19527344 12.21271484 10.015625 12.23046875 Z " fill="#5B2313" transform="translate(290.984375,373.76953125)"/>
<path d="M0 0 C0.75023437 -0.02578125 1.50046875 -0.0515625 2.2734375 -0.078125 C5.42866493 0.36213929 7.05564211 1.34520702 9.625 3.25 C10.97503998 5.53798363 12.04074005 7.62111487 13.0703125 10.04296875 C13.36686737 10.70782791 13.66342224 11.37268707 13.96896362 12.05769348 C14.91037753 14.17827261 15.83008758 16.30751924 16.75 18.4375 C17.3749538 19.8502066 18.00124356 21.26232299 18.62890625 22.67382812 C26.625 40.76828308 26.625 40.76828308 26.625 45.25 C22.005 45.25 17.385 45.25 12.625 45.25 C11.305 42.94 9.985 40.63 8.625 38.25 C3.015 38.25 -2.595 38.25 -8.375 38.25 C-9.365 40.56 -10.355 42.87 -11.375 45.25 C-15.11474432 47.11987216 -19.84290828 46.55641834 -23.875 45.75 C-24.37 45.585 -24.865 45.42 -25.375 45.25 C-24.8398896 39.74785314 -23.4102281 35.4706124 -21.06640625 30.48828125 C-20.73962387 29.77520309 -20.41284149 29.06212494 -20.07615662 28.32743835 C-19.03841447 26.06843721 -17.98814037 23.8155265 -16.9375 21.5625 C-16.23550757 20.03878923 -15.53432786 18.51470375 -14.83398438 16.99023438 C-13.028816 13.06985404 -11.21385857 9.15471229 -9.375 5.25 C-9.035896 4.45875732 -8.69679199 3.66751465 -8.34741211 2.85229492 C-6.50748892 -0.17944395 -3.22492606 0.06603944 0 0 Z M-0.375 17.25 C-2.73410353 21.5137281 -2.73410353 21.5137281 -3.375 26.25 C-0.735 26.25 1.905 26.25 4.625 26.25 C3.53431332 22.47454612 2.7166909 19.77956528 -0.375 17.25 Z " fill="#5A2414" transform="translate(255.375,373.75)"/>
<path d="M0 0 C1.051875 -0.01675781 2.10375 -0.03351563 3.1875 -0.05078125 C6.44240921 0.36964452 6.95226336 0.87418878 9 3.3125 C9.97973633 5.09912109 9.97973633 5.09912109 10.83203125 7.0859375 C11.15276611 7.82223389 11.47350098 8.55853027 11.80395508 9.31713867 C12.1367749 10.09935791 12.46959473 10.88157715 12.8125 11.6875 C13.52003913 13.31675138 14.2283785 14.94565546 14.9375 16.57421875 C15.28554688 17.37778809 15.63359375 18.18135742 15.9921875 19.00927734 C17.38628036 22.19529285 18.84444598 25.34735398 20.3125 28.5 C20.78558594 29.52351563 21.25867188 30.54703125 21.74609375 31.6015625 C22.50567895 33.24378097 23.26793648 34.88477188 24.03515625 36.5234375 C25.51884682 39.79445764 26 41.61538768 26 45.3125 C21.69740991 46.52260346 17.22596292 46.94465687 13 45.3125 C11.97265625 43.68359375 11.97265625 43.68359375 11.0625 41.75 C10.04516205 39.70304893 10.04516205 39.70304893 8 38.3125 C2.42658311 37.33751584 -3.38969287 37.92280943 -9 38.3125 C-9.60199219 39.446875 -10.20398438 40.58125 -10.82421875 41.75 C-12.6484375 45.1875 -12.6484375 45.1875 -15.8125 46.3125 C-19.30204058 46.3125 -22.56782604 45.93029131 -26 45.3125 C-25.56973395 38.37934933 -22.717688 32.82770037 -19.75 26.625 C-18.78432862 24.58043161 -17.82078381 22.53485746 -16.859375 20.48828125 C-16.38306641 19.47975098 -15.90675781 18.4712207 -15.41601562 17.43212891 C-13.51697598 13.24834812 -11.83623088 8.98672262 -10.18457031 4.69995117 C-7.86801495 0.03103219 -4.76049186 0.01750181 0 0 Z M-1 16.3125 C-1.67154933 17.60163487 -2.33708859 18.89390204 -3 20.1875 C-3.37125 20.90679687 -3.7425 21.62609375 -4.125 22.3671875 C-5.13673746 24.26098977 -5.13673746 24.26098977 -5 26.3125 C-1.59679066 26.98923447 -1.59679066 26.98923447 2 27.3125 C2.66 26.6525 3.32 25.9925 4 25.3125 C2.68 22.3425 1.36 19.3725 0 16.3125 C-0.33 16.3125 -0.66 16.3125 -1 16.3125 Z " fill="#5A2514" transform="translate(361,373.6875)"/>
<path d="M0 0 C0.94746094 -0.04898437 1.89492188 -0.09796875 2.87109375 -0.1484375 C6.68869207 0.5940272 7.3582117 2.19056995 9.5625 5.375 C11.07023815 8.24987196 12.37465759 11.2009858 13.671875 14.17578125 C14.04354797 15.01215622 14.41522095 15.84853119 14.79815674 16.71025085 C15.97657372 19.36631286 17.14465799 22.02677385 18.3125 24.6875 C19.11260198 26.49574342 19.91337607 28.30368961 20.71484375 30.11132812 C22.67186086 34.52914868 24.61962772 38.95094167 26.5625 43.375 C23.88232422 46.33935547 23.88232422 46.33935547 21.00390625 46.66015625 C13.18503014 46.05543992 13.18503014 46.05543992 9.875 42.4375 C8.5625 39.375 8.5625 39.375 8.5625 37.375 C2.6225 37.705 -3.3175 38.035 -9.4375 38.375 C-10.4275 40.685 -11.4175 42.995 -12.4375 45.375 C-16.71749354 47.51499677 -21.92798355 46.46821611 -26.4375 45.375 C-25.86052636 40.94230496 -24.72996835 37.33677128 -22.890625 33.26953125 C-22.1171875 31.54573242 -22.1171875 31.54573242 -21.328125 29.78710938 C-20.78671875 28.59923828 -20.2453125 27.41136719 -19.6875 26.1875 C-19.1615625 25.01896484 -18.635625 23.85042969 -18.09375 22.64648438 C-17.05105252 20.33267672 -16.00232814 18.02157452 -14.94726562 15.71337891 C-13.95422468 13.51757654 -12.98343286 11.31155196 -12.03710938 9.09521484 C-11.60720703 8.09828613 -11.17730469 7.10135742 -10.734375 6.07421875 C-10.36151367 5.18951904 -9.98865234 4.30481934 -9.60449219 3.39331055 C-7.50261647 -0.2418791 -3.84432301 0.13562062 0 0 Z M-1.4375 16.375 C-3.72795014 21.18709901 -3.72795014 21.18709901 -4.4375 26.375 C-1.7975 26.375 0.8425 26.375 3.5625 26.375 C3.11340939 24.89300098 2.65293436 23.41444764 2.1875 21.9375 C1.80464844 20.70193359 1.80464844 20.70193359 1.4140625 19.44140625 C0.75367773 17.19701984 0.75367773 17.19701984 -1.4375 16.375 Z " fill="#5A2414" transform="translate(450.4375,373.625)"/>
<path d="M0 0 C0.96550781 -0.03738281 1.93101563 -0.07476562 2.92578125 -0.11328125 C6.62364179 0.45682738 7.4578435 1.29858804 9.6875 4.3125 C11.28541612 7.4511716 12.62162539 10.67218153 13.9375 13.9375 C14.30101562 14.80890625 14.66453125 15.6803125 15.0390625 16.578125 C17.6875 23.01004464 17.6875 23.01004464 17.6875 25.3125 C18.3475 25.3125 19.0075 25.3125 19.6875 25.3125 C19.82285156 24.75304687 19.95820313 24.19359375 20.09765625 23.6171875 C21.60096946 18.01802093 23.67593086 12.92472303 26.25 7.75 C26.55494385 7.13044434 26.8598877 6.51088867 27.17407227 5.87255859 C29.43232065 1.44008968 29.43232065 1.44008968 31.6875 0.3125 C38.99184783 0.08061594 38.99184783 0.08061594 42.6875 1.3125 C42.08704445 6.59328283 40.34736206 10.87456186 38.1953125 15.66796875 C37.84870575 16.45142166 37.502099 17.23487457 37.14498901 18.04206848 C36.41371899 19.6899681 35.67896063 21.33632366 34.94091797 22.98120117 C33.81342695 25.4979309 32.70097746 28.02093477 31.58984375 30.54492188 C30.87589244 32.14883505 30.16107808 33.75236439 29.4453125 35.35546875 C29.11395294 36.10861862 28.78259338 36.86176849 28.44119263 37.63774109 C26.89070019 41.06851051 25.55295407 43.84652431 22.6875 46.3125 C20.75 46.640625 20.75 46.640625 18.6875 46.5625 C18.006875 46.54703125 17.32625 46.5315625 16.625 46.515625 C14.6875 46.3125 14.6875 46.3125 11.6875 45.3125 C10.18645429 42.66827378 8.92707923 40.0830877 7.6875 37.3125 C7.18557129 36.1997168 6.68364258 35.08693359 6.16650391 33.94042969 C4.71921198 30.70955717 3.29832063 27.46769066 1.88647461 24.22119141 C0.99775876 22.18235829 0.09953655 20.14787779 -0.79882812 18.11328125 C-1.37038208 16.80234059 -1.94136564 15.49115106 -2.51171875 14.1796875 C-3.02565186 13.00519043 -3.53958496 11.83069336 -4.0690918 10.62060547 C-5.25405113 7.46800406 -5.97893592 4.65931133 -6.3125 1.3125 C-4.58665266 -0.41334734 -2.35040633 0.0591493 0 0 Z " fill="#5A2515" transform="translate(125.3125,373.6875)"/>
<path d="M0 0 C1.29997925 0.00303635 1.29997925 0.00303635 2.6262207 0.00613403 C3.51027588 0.00517731 4.39433105 0.00422058 5.30517578 0.00323486 C7.178142 0.00255302 9.05111056 0.0044076 10.92407227 0.00857544 C13.80140458 0.01392364 16.67858078 0.0086306 19.5559082 0.00222778 C21.37101272 0.00288856 23.18611713 0.00416972 25.0012207 0.00613403 C25.86787354 0.0041098 26.73452637 0.00208557 27.62744141 0 C33.69877061 0.02399644 33.69877061 0.02399644 34.8137207 1.13894653 C34.88577582 2.82503619 34.89758138 4.51395313 34.8762207 6.20144653 C34.86719727 7.1205481 34.85817383 8.03964966 34.84887695 8.98660278 C34.83727539 9.69687622 34.82567383 10.40714966 34.8137207 11.13894653 C32.16913691 12.46123843 30.13610769 12.23571847 27.1887207 12.20144653 C26.18583008 12.1924231 25.18293945 12.18339966 24.1496582 12.17410278 C23.37879883 12.16250122 22.60793945 12.15089966 21.8137207 12.13894653 C21.82157593 12.99891235 21.82157593 12.99891235 21.82958984 13.87625122 C22.03104099 39.30499646 22.03104099 39.30499646 20.8137207 45.13894653 C18.32617284 46.38272046 16.58716769 46.27200888 13.8137207 46.26394653 C12.9268457 46.26652466 12.0399707 46.26910278 11.1262207 46.27175903 C8.8137207 46.13894653 8.8137207 46.13894653 6.8137207 45.13894653 C6.4837207 34.57894653 6.1537207 24.01894653 5.8137207 13.13894653 C3.12880286 11.79648761 0.7286674 12.1134528 -2.21362305 12.20144653 C-4.1862793 12.13894653 -4.1862793 12.13894653 -7.1862793 11.13894653 C-7.2131608 9.49320087 -7.23262053 7.8473324 -7.2487793 6.20144653 C-7.26038086 5.2849231 -7.27198242 4.36839966 -7.28393555 3.42410278 C-7.08403346 -1.25360615 -3.9462409 0.0155972 0 0 Z " fill="#592312" transform="translate(390.186279296875,373.8610534667969)"/>
<path d="M0 0 C1.262463 0.00303635 1.262463 0.00303635 2.5504303 0.00613403 C3.83966148 0.00469894 3.83966148 0.00469894 5.15493774 0.00323486 C6.97662936 0.00255296 8.7983234 0.00440792 10.62001038 0.00857544 C13.41392975 0.01391708 16.20768788 0.00863415 19.00160217 0.00222778 C20.76787857 0.00288869 22.53415487 0.00417012 24.3004303 0.00613403 C25.14004807 0.0041098 25.97966583 0.00208557 26.84472656 0 C32.7619271 0.02399181 32.7619271 0.02399181 34.99183655 1.13894653 C35.8539068 4.66559755 36.50247874 7.7400016 34.99183655 11.13894653 C31.99183655 12.13894653 31.99183655 12.13894653 20.99183655 12.13894653 C20.99183655 22.69894653 20.99183655 33.25894653 20.99183655 44.13894653 C14.84617946 45.89484856 12.81881642 46.3281261 6.99183655 45.13894653 C6.02718163 37.91542825 5.87227541 30.85832585 5.92933655 23.57644653 C5.93384827 22.4723645 5.93835999 21.36828247 5.94300842 20.23074341 C5.95468515 17.53341953 5.9710613 14.83621306 5.99183655 12.13894653 C5.3885553 12.1505481 4.78527405 12.16214966 4.16371155 12.17410278 C2.96488342 12.18763794 2.96488342 12.18763794 1.74183655 12.20144653 C0.55847717 12.21884888 0.55847717 12.21884888 -0.64878845 12.23660278 C-2.97101488 12.14048414 -4.83823556 11.97907348 -7.00816345 11.13894653 C-8.24641804 7.42418277 -7.71403602 4.9506584 -7.00816345 1.13894653 C-5.14307264 -0.72614428 -2.48118513 0.01010114 0 0 Z " fill="#5D2615" transform="translate(196.00816345214844,373.8610534667969)"/>
<path d="M0 0 C1.51400391 0.01740234 1.51400391 0.01740234 3.05859375 0.03515625 C4.07050781 0.04417969 5.08242187 0.05320312 6.125 0.0625 C7.29869141 0.07990234 7.29869141 0.07990234 8.49609375 0.09765625 C10.19468565 4.53200354 10.74323056 8.1910557 10.7265625 12.9296875 C10.72462891 14.22326172 10.72269531 15.51683594 10.72070312 16.84960938 C10.71449951 17.51742432 10.7082959 18.18523926 10.7019043 18.87329102 C10.68373743 20.89417293 10.6813945 22.91459201 10.68164062 24.93554688 C10.65123855 31.73547774 10.42267695 38.35954319 9.49609375 45.09765625 C4.69019729 45.8307591 1.26581104 46.12343904 -3.50390625 45.09765625 C-5.16935372 12.20063937 -5.16935372 12.20063937 -3.50390625 1.09765625 C-2.50390625 0.09765625 -2.50390625 0.09765625 0 0 Z " fill="#5E2413" transform="translate(175.50390625,373.90234375)"/>
<path d="M0 0 C0.99 0.66 1.98 1.32 3 2 C3.99 2 4.98 2 6 2 C11.18992285 13.16708119 13.76846062 26.86136496 11 39 C9.62473421 42.23300188 8.01374091 45.12428881 6 48 C5.34 48 4.68 48 4 48 C4.66 50.97 5.32 53.94 6 57 C5.34 57 4.68 57 4 57 C4 55.68 4 54.36 4 53 C3.34 53 2.68 53 2 53 C2.061875 53.78375 2.12375 54.5675 2.1875 55.375 C2.125625 56.24125 2.06375 57.1075 2 58 C-1 60 -1 60 -3.0625 59.75 C-5 59 -5 59 -7 57 C-7.75 53.5 -7.75 53.5 -8 50 C-7.34 49.34 -6.68 48.68 -6 48 C-6 47.01 -6 46.02 -6 45 C-4.46875 43.61328125 -4.46875 43.61328125 -2.5 42.3125 C-1.8503125 41.87550781 -1.200625 41.43851563 -0.53125 40.98828125 C0.22671875 40.49908203 0.22671875 40.49908203 1 40 C0.67 41.32 0.34 42.64 0 44 C3.08089673 41.22719294 4.68775452 38.93673644 6 35 C6.33 36.32 6.66 37.64 7 39 C8.1482685 36.703463 8.11561175 35.41686833 8.09765625 32.8671875 C8.09282227 31.65869141 8.09282227 31.65869141 8.08789062 30.42578125 C8.07951172 29.58402344 8.07113281 28.74226563 8.0625 27.875 C8.05798828 27.02550781 8.05347656 26.17601562 8.04882812 25.30078125 C8.03702874 23.20049091 8.01909306 21.1002367 8 19 C7.34 19.99 6.68 20.98 6 22 C5.90203125 21.29875 5.8040625 20.5975 5.703125 19.875 C4.69427973 13.4740507 3.04940705 8.69222649 0 3 C0 2.01 0 1.02 0 0 Z " fill="#B65C34" transform="translate(250,160)"/>
<path d="M0 0 C7.52982553 0.117282 15.05949809 0.24211802 22.58911133 0.37231445 C25.15288421 0.41574066 27.71668746 0.45740985 30.28051758 0.49731445 C33.95663628 0.55483147 37.63260099 0.61857863 41.30859375 0.68359375 C42.46274277 0.70030624 43.61689178 0.71701874 44.80601501 0.73423767 C46.3975515 0.7641555 46.3975515 0.7641555 48.02124023 0.79467773 C48.96055893 0.81022202 49.89987762 0.8257663 50.86766052 0.84178162 C53 1 53 1 54 2 C54.10074291 4.15304698 54.1308211 6.30944206 54.1328125 8.46484375 C54.13479141 9.45648277 54.13479141 9.45648277 54.1368103 10.46815491 C54.1387325 12.62465042 54.13238603 14.78101764 54.125 16.9375 C54.12367065 18.02671753 54.12367065 18.02671753 54.12231445 19.13793945 C54.10647503 30.11709838 53.85160128 41.05084073 53 52 C51.29720693 49.03045709 50.75333821 46.91915193 50.77294922 43.50683594 C50.77310028 42.62622498 50.77325134 41.74561401 50.77340698 40.83831787 C50.78372955 39.89651672 50.79405212 38.95471558 50.8046875 37.984375 C50.8075174 37.01340881 50.81034729 36.04244263 50.81326294 35.04205322 C50.82444708 31.94457615 50.84954858 28.8473895 50.875 25.75 C50.88503208 23.64844168 50.89415753 21.54687882 50.90234375 19.4453125 C50.92438066 14.29676331 50.95889855 9.14843087 51 4 C50.36550934 4.00444122 49.73101868 4.00888245 49.07730103 4.01345825 C42.49166102 4.0576008 35.90606283 4.08782852 29.3203125 4.10986328 C26.86033421 4.11993983 24.40036794 4.13360131 21.94042969 4.15087891 C18.41077715 4.17505461 14.88128253 4.1864664 11.3515625 4.1953125 C10.24632233 4.20563507 9.14108215 4.21595764 8.00234985 4.22659302 C6.98144257 4.22674408 5.96053528 4.22689514 4.90869141 4.22705078 C4.00712311 4.231492 3.10555481 4.23593323 2.17666626 4.24050903 C0 4 0 4 -2 2 C-1.34 2 -0.68 2 0 2 C0 1.34 0 0.68 0 0 Z " fill="#AE613B" transform="translate(224,253)"/>
<path d="M0 0 C0.66 0.33 1.32 0.66 2 1 C2.33 14.2 2.66 27.4 3 41 C5.31 41 7.62 41 10 41 C10 27.8 10 14.6 10 1 C10.99 0.67 11.98 0.34 13 0 C13.9380572 3.96648217 14.12889888 7.66309464 14.1328125 11.734375 C14.13474609 13.67957031 14.13474609 13.67957031 14.13671875 15.6640625 C14.13357666 16.67194824 14.13357666 16.67194824 14.13037109 17.70019531 C14.12505268 19.72989504 14.13031127 21.7593699 14.13671875 23.7890625 C14.12996444 30.61091878 13.93795486 37.24076977 13 44 C8.19410354 44.73310285 4.76971729 45.02578279 0 44 C-1.62196078 11.96196078 -1.62196078 11.96196078 0 0 Z " fill="#53271C" transform="translate(172,375)"/>
<path d="M0 0 C4.00079356 2.4449294 5.65936873 3.95918222 7.125 8.4375 C6.96912937 12.87981285 5.92525088 14.68984769 3 18 C-0.12365615 19.9417322 -1.8620689 20.00483969 -5.5625 19.875 C-9.44006763 18.88798279 -10.78919747 18.31620379 -13 15 C-14.21786708 10.98523819 -14.42582402 8.03094237 -12.8125 4.125 C-9.11571983 -0.20915606 -5.62337521 -0.67868322 0 0 Z M-9 7 C-8.81535634 11.34184202 -8.81535634 11.34184202 -7 15 C-2.96839809 15.26293056 -1.44107266 15.29404844 2 13 C2.58345476 10.04253508 2.58345476 10.04253508 2 7 C0.2890789 5.02901574 0.2890789 5.02901574 -2 4 C-5.51716303 4 -6.37121748 4.82445585 -9 7 Z " fill="#744931" transform="translate(346,437)"/>
<path d="M0 0 C3.44428265 1.44781793 5.36130962 3.27694609 7.75 6.125 C8.36359375 6.84945313 8.9771875 7.57390625 9.609375 8.3203125 C10.29773438 9.15175781 10.29773438 9.15175781 11 10 C11.33 7.03 11.66 4.06 12 1 C12.99 0.67 13.98 0.34 15 0 C16.59412284 3.18824568 16.10174735 6.62896662 16.0625 10.125 C16.05798828 10.87910156 16.05347656 11.63320313 16.04882812 12.41015625 C16.03703499 14.27347127 16.01909942 16.13674555 16 18 C14.68 18.33 13.36 18.66 12 19 C9.36 16.03 6.72 13.06 4 10 C3.67 12.97 3.34 15.94 3 19 C1.68 19 0.36 19 -1 19 C-1.82810601 12.18491136 -2.50413785 6.48129797 0 0 Z " fill="#714535" transform="translate(364,437)"/>
<path d="M0 0 C2.71627978 2.18811426 3.47800355 3.41571561 4.25 6.8125 C4.11879397 10.55187173 3.71723688 13.02022876 1.8125 16.25 C-2.24107005 18.72168905 -6.14044219 18.65398632 -10.75 17.8125 C-13.86199254 15.82082478 -15.36304528 14.54159499 -16.18359375 10.875 C-16.42110222 7.07486456 -15.96874465 5.1670172 -13.9375 1.875 C-9.83749422 -1.99071973 -5.06569059 -2.1874573 0 0 Z M-10.0625 4.5 C-12.03087944 6.68972477 -12.03087944 6.68972477 -11.625 9.4375 C-10.88532087 11.95655125 -10.88532087 11.95655125 -8.75 13.8125 C-5.75 14.14583333 -5.75 14.14583333 -2.75 13.8125 C-0.3778031 11.86791686 -0.3778031 11.86791686 -0.4375 8.3125 C-0.540625 7.1575 -0.64375 6.0025 -0.75 4.8125 C-4.41607968 2.36844688 -6.38786562 1.81851005 -10.0625 4.5 Z " fill="#6C3E2E" transform="translate(232.75,438.1875)"/>
<path d="M0 0 C1.98 0.495 1.98 0.495 4 1 C4.33 4.96 4.66 8.92 5 13 C6.65 13.33 8.3 13.66 10 14 C11.28446919 11.43106162 11.32977144 9.23423663 11.5625 6.375 C11.64628906 5.37210937 11.73007812 4.36921875 11.81640625 3.3359375 C11.87699219 2.56507813 11.93757813 1.79421875 12 1 C12.99 0.67 13.98 0.34 15 0 C16.40603618 2.81207235 16.24557505 5.24009466 16.3125 8.375 C16.34988281 9.51710938 16.38726562 10.65921875 16.42578125 11.8359375 C16 15 16 15 14.1640625 17.35546875 C11.3566816 19.48887554 9.51851748 19.92819352 6 20 C3.18537042 18.78459177 1.53338873 17.83238172 -0.12890625 15.23828125 C-1.19728163 12.49308352 -1.23107123 10.31407742 -1.1875 7.375 C-1.18105469 6.41335938 -1.17460937 5.45171875 -1.16796875 4.4609375 C-1 2 -1 2 0 0 Z " fill="#683F33" transform="translate(268,437)"/>
<path d="M0 0 C0.99 0.66 1.98 1.32 3 2 C3 2.99 3 3.98 3 5 C0.36 5 -2.28 5 -5 5 C-5.33 5.66 -5.66 6.32 -6 7 C-5.0925 7.0825 -4.185 7.165 -3.25 7.25 C0.46100241 8.10638517 1.83642572 8.88445304 4 12 C4.0625 14.5625 4.0625 14.5625 3 17 C-0.07208604 19.71066415 -1.56612979 20.0220612 -5.6875 19.8125 C-9 19 -9 19 -11 17 C-11 16.01 -11 15.02 -11 14 C-7.7 14.33 -4.4 14.66 -1 15 C-2.60838293 11.78323414 -5.78593279 11.35329146 -9 10 C-9.66 9.34 -10.32 8.68 -11 8 C-10.8125 5 -10.8125 5 -10 2 C-6.31282562 -0.45811625 -4.35654296 -0.31118164 0 0 Z " fill="#613D30" transform="translate(205,437)"/>
<path d="M0 0 C0.99 0.66 1.98 1.32 3 2 C2.67 2.99 2.34 3.98 2 5 C-0.64 5 -3.28 5 -6 5 C-5.2050157 7.1581648 -5.2050157 7.1581648 -3.1875 7.67578125 C-2.465625 7.88589844 -1.74375 8.09601563 -1 8.3125 C2.84350468 9.67877276 2.84350468 9.67877276 4.1875 12.4375 C3.95034141 15.67866735 3.41490917 16.81879172 1 19 C-2.83723971 20.3081499 -5.23347332 20.11051741 -8.875 18.5625 C-9.90625 18.046875 -10.9375 17.53125 -12 17 C-11.505 15.515 -11.505 15.515 -11 14 C-7.7 14.33 -4.4 14.66 -1 15 C-1.79191018 12.83762122 -1.79191018 12.83762122 -3.8125 12.359375 C-4.534375 12.15828125 -5.25625 11.9571875 -6 11.75 C-8.171875 10.98046875 -8.171875 10.98046875 -10 10 C-11.25 7.0625 -11.25 7.0625 -11 4 C-8.1285847 -0.54640755 -5.09839276 -0.5561883 0 0 Z " fill="#704B35" transform="translate(401,437)"/>
<path d="M0 0 C3.5625 1.5625 3.5625 1.5625 6 4 C7.375 7.75 7.375 7.75 8 11 C6.68 10.34 5.36 9.68 4 9 C4 8.34 4 7.68 4 7 C3.360625 6.690625 2.72125 6.38125 2.0625 6.0625 C0 5 0 5 -1 4 C-4.0510457 3.56678864 -6.95666508 3.49723465 -10 4 C-12.40406384 6.37842577 -12.40406384 6.37842577 -14 9 C-14.99 9 -15.98 9 -17 9 C-16.97679687 10.05960938 -16.95359375 11.11921875 -16.9296875 12.2109375 C-16.91093056 13.5989513 -16.89273028 14.9869727 -16.875 16.375 C-16.85824219 17.07367188 -16.84148437 17.77234375 -16.82421875 18.4921875 C-16.80655733 20.32897486 -16.89696739 22.16601963 -17 24 C-17.66 24.66 -18.32 25.32 -19 26 C-21.75805162 20.27173895 -22.41418338 16.54301972 -20.8671875 10.3359375 C-19.32007031 6.16847769 -17.00730078 3.24384023 -13.171875 0.8671875 C-8.93058252 -0.8262782 -4.47616234 -0.51174649 0 0 Z " fill="#AC5C3C" transform="translate(345,213)"/>
<path d="M0 0 C1.485 0.99 1.485 0.99 3 2 C3.99 2 4.98 2 6 2 C8.32714761 7.00728951 9.80928815 11.68998417 10.75 17.125 C10.87777832 17.86274658 11.00555664 18.60049316 11.13720703 19.3605957 C12.50623506 28.07849837 13.01954398 37.36156351 8 45 C7.34 45 6.68 45 6 45 C6.32742188 43.8759375 6.65484375 42.751875 6.9921875 41.59375 C8.17745135 36.85269459 8.22794919 32.36236942 8.125 27.5 C8.11597656 26.67757812 8.10695313 25.85515625 8.09765625 25.0078125 C8.07436865 23.00507917 8.03850959 21.00249846 8 19 C7.34 19.99 6.68 20.98 6 22 C5.85304687 20.948125 5.85304687 20.948125 5.703125 19.875 C4.69427973 13.4740507 3.04940705 8.69222649 0 3 C0 2.01 0 1.02 0 0 Z " fill="#AC5633" transform="translate(250,160)"/>
<path d="M0 0 C4.33048221 1.08262055 4.89817049 1.64136081 7.5625 4.9375 C9.67531519 7.53028657 11.17546286 9.11697524 14 11 C13.40885621 14.35474101 12.28774559 16.12827765 10 18.625 C7.72782776 21.12374312 7.72782776 21.12374312 6 24 C5.01 23.67 4.02 23.34 3 23 C3.33 21.68 3.66 20.36 4 19 C4.66 19 5.32 19 6 19 C6.33 17.68 6.66 16.36 7 15 C7.66 15 8.32 15 9 15 C9 13.68 9 12.36 9 11 C8.01 10.67 7.02 10.34 6 10 C4.8125 7.4375 4.8125 7.4375 4 5 C1.06361777 5.56031273 1.06361777 5.56031273 -2 7 C-3.91839859 10.0005907 -3.91839859 10.0005907 -5 13 C-5.99 11.68 -6.98 10.36 -8 9 C-5.36 6.03 -2.72 3.06 0 0 Z " fill="#B36641" transform="translate(204,201)"/>
<path d="M0 0 C2.12493141 -0.02693575 4.24995912 -0.04636628 6.375 -0.0625 C7.55835938 -0.07410156 8.74171875 -0.08570313 9.9609375 -0.09765625 C13 0 13 0 15 1 C15 1.99 15 2.98 15 4 C13.02 4.33 11.04 4.66 9 5 C9 9.62 9 14.24 9 19 C7.68 19 6.36 19 5 19 C5 14.38 5 9.76 5 5 C2.03 4.505 2.03 4.505 -1 4 C-0.67 2.68 -0.34 1.36 0 0 Z " fill="#693520" transform="translate(294,437)"/>
<path d="M0 0 C0.66 0 1.32 0 2 0 C2 15.84 2 31.68 2 48 C4.54200817 48 7.08450178 47.96260339 9.625 47.875 C13 48 13 48 15 50 C9.75103182 51.07671142 5.60877798 51 0 51 C0 34.17 0 17.34 0 0 Z " fill="#683022" transform="translate(322,160)"/>
<path d="M0 0 C0.99 0.66 1.98 1.32 3 2 C3.29296875 5.0390625 3.29296875 5.0390625 3.1875 8.625 C3.16042969 9.81351562 3.13335937 11.00203125 3.10546875 12.2265625 C3.07066406 13.14179688 3.03585938 14.05703125 3 15 C4.670625 14.9690625 4.670625 14.9690625 6.375 14.9375 C10 15 10 15 12 16 C12 16.99 12 17.98 12 19 C9.85423363 19.02685938 7.70837355 19.04633088 5.5625 19.0625 C4.36753906 19.07410156 3.17257813 19.08570313 1.94140625 19.09765625 C-1 19 -1 19 -2 18 C-2.12682623 15.52836314 -2.18520251 13.09709389 -2.1875 10.625 C-2.19974609 9.93921875 -2.21199219 9.2534375 -2.22460938 8.546875 C-2.23552331 4.80703203 -2.1266842 3.1900263 0 0 Z " fill="#6D3E2E" transform="translate(248,437)"/>
<path d="M0 0 C3.5625 0.125 3.5625 0.125 5.5625 1.125 C5.5625 1.785 5.5625 2.445 5.5625 3.125 C6.8928125 3.0321875 6.8928125 3.0321875 8.25 2.9375 C11.92722369 3.14564474 13.66212455 3.90706583 16.5625 6.125 C16.5625 6.785 16.5625 7.445 16.5625 8.125 C14.5825 8.455 12.6025 8.785 10.5625 9.125 C10.5625 8.135 10.5625 7.145 10.5625 6.125 C9.2425 5.795 7.9225 5.465 6.5625 5.125 C6.5625 6.115 6.5625 7.105 6.5625 8.125 C3.8776523 9.88047734 2.64247785 10.13127277 -0.625 9.875 C-2.0171875 9.50375 -2.0171875 9.50375 -3.4375 9.125 C-4.80373674 6.39252652 -4.565926 4.14301098 -4.4375 1.125 C-3.4375 0.125 -3.4375 0.125 0 0 Z " fill="#B45B2F" transform="translate(232.4375,151.875)"/>
<path d="M0 0 C0.99 0 1.98 0 3 0 C2.52173342 4.30439925 0.24337843 6.30868598 -3 9 C-10.55246612 12.85423544 -18.23314945 12.3418482 -26.5 12.1875 C-27.90883986 12.17242613 -29.31769532 12.1587425 -30.7265625 12.14648438 C-34.15144396 12.11129724 -37.57551763 12.06206079 -41 12 C-41 11.34 -41 10.68 -41 10 C-39.88141602 9.96241577 -39.88141602 9.96241577 -38.74023438 9.92407227 C-35.32668404 9.80726782 -31.9133531 9.68492755 -28.5 9.5625 C-26.74042969 9.50352539 -26.74042969 9.50352539 -24.9453125 9.44335938 C-18.90429231 9.22276032 -12.9819015 8.88099787 -7 8 C-7 7.34 -7 6.68 -7 6 C-5.01310269 4.64721885 -3.01254782 3.31431695 -1 2 C-0.67 1.34 -0.34 0.68 0 0 Z " fill="#602B1B" transform="translate(327,407)"/>
<path d="M0 0 C0.66 0 1.32 0 2 0 C2.01417969 0.845625 2.02835938 1.69125 2.04296875 2.5625 C2.3529993 9.93619952 2.97830111 15.39221423 8 21 C9.93428386 22.76729533 11.94725149 24.36713187 14 26 C14.33 26.99 14.66 27.98 15 29 C11.4257023 28.67506385 9.44287547 28.36129314 6.625 26.0625 C5 24 5 24 5 22 C4.34 22 3.68 22 3 22 C1.23537317 18.91190305 1 17.76687864 1 14 C0.34 14 -0.32 14 -1 14 C-1.93402724 8.58264203 -2.20808081 5.19548425 0 0 Z " fill="#B2643E" transform="translate(206,226)"/>
<path d="M0 0 C1.32 0.33 2.64 0.66 4 1 C4.08121924 2.60332791 4.13929134 4.20784026 4.1875 5.8125 C4.22230469 6.70582031 4.25710937 7.59914062 4.29296875 8.51953125 C4 11 4 11 2.75 12.78125 C-0.28875039 14.8975226 -3.36274135 14.70186405 -7 15 C-6.34 11.37 -5.68 7.74 -5 4 C0 3 0 3 2 4 C2 3.34 2 2.68 2 2 C1.34 2 0.68 2 0 2 C0 1.34 0 0.68 0 0 Z " fill="#B45B30" transform="translate(215,156)"/>
<path d="M0 0 C1.31000977 -0.02416992 1.31000977 -0.02416992 2.64648438 -0.04882812 C9.52996858 -0.05396889 15.33603098 0.85691306 20.8125 5.375 C22.3125 7.3125 22.3125 7.3125 22.3125 9.3125 C19.54602998 8.92826805 17.71504699 8.6317614 15.5 6.875 C9.93599657 2.90071183 2.42017222 2.94578035 -4.1875 2.6875 C-5.00992187 2.64882813 -5.83234375 2.61015625 -6.6796875 2.5703125 C-8.6819701 2.47718308 -10.68470262 2.39381015 -12.6875 2.3125 C-8.47525373 -0.49566418 -4.95170394 -0.01787619 0 0 Z " fill="#5C2B1B" transform="translate(306.6875,374.6875)"/>
<path d="M0 0 C3.46941546 0.45822468 6.67395049 0.89131683 10 2 C11.48123547 2.0806622 12.96582204 2.10761193 14.44921875 2.09765625 C15.29677734 2.09443359 16.14433594 2.09121094 17.01757812 2.08789062 C18.33918945 2.07532227 18.33918945 2.07532227 19.6875 2.0625 C20.58017578 2.05798828 21.47285156 2.05347656 22.39257812 2.04882812 C24.59511987 2.03704983 26.79752599 2.02060164 29 2 C26.7004293 5.44935605 25.89922969 5.89804378 22 7 C16.2045155 7.38003177 11.56944809 6.59127088 6 5 C6 4.34 6 3.68 6 3 C3.03 2.505 3.03 2.505 0 2 C0 1.34 0 0.68 0 0 Z " fill="#B36643" transform="translate(346,293)"/>
<path d="M0 0 C1.625 0.8125 1.625 0.8125 2.9375 2.9375 C3.8280479 6.66160941 3.63292658 9.11676922 2.625 12.8125 C0.975 14.1325 -0.675 15.4525 -2.375 16.8125 C-2.375 12.5225 -2.375 8.2325 -2.375 3.8125 C-8.11386755 2.83321361 -8.11386755 2.83321361 -13.375 3.8125 C-13.045 2.8225 -12.715 1.8325 -12.375 0.8125 C-8.64950274 -1.05024863 -4.08249382 -0.32230214 0 0 Z " fill="#714F3E" transform="translate(233.375,439.1875)"/>
<path d="M0 0 C4.32666979 1.4919551 5.05935697 4.04108822 7 8 C10.34376889 11.91698641 13.96794344 14.33354371 18.42578125 16.7890625 C19.20501953 17.38847656 19.20501953 17.38847656 20 18 C20 18.99 20 19.98 20 21 C15.29083822 19.71630721 12.43481341 18.00738868 8.875 14.6875 C8.04742187 13.92824219 7.21984375 13.16898437 6.3671875 12.38671875 C0.09441714 6.06219286 0.09441714 6.06219286 -0.25 2.1875 C-0.1675 1.465625 -0.085 0.74375 0 0 Z " fill="#B3633C" transform="translate(194,249)"/>
<path d="M0 0 C0 0.66 0 1.32 0 2 C0.66 2 1.32 2 2 2 C2 2.66 2 3.32 2 4 C-0.31 4 -2.62 4 -5 4 C-5.02578125 4.556875 -5.0515625 5.11375 -5.078125 5.6875 C-5.52373169 11.68293548 -7.05072502 15.76741536 -10 21 C-10.99 21 -11.98 21 -13 21 C-12.5020163 17.26512223 -12.12508244 15.18762365 -10 12 C-9.68394585 10.50887275 -9.41606468 9.00701987 -9.1875 7.5 C-8.32123808 3.27181684 -8.32123808 3.27181684 -5.5625 0.9375 C-3 0 -3 0 0 0 Z " fill="#AB643F" transform="translate(215,156)"/>
<path d="M0 0 C0.99 0.66 1.98 1.32 3 2 C3 2.99 3 3.98 3 5 C0.36 5 -2.28 5 -5 5 C-5.33 5.66 -5.66 6.32 -6 7 C-5.34 7 -4.68 7 -4 7 C-3.67 7.99 -3.34 8.98 -3 10 C-5.875 10.125 -5.875 10.125 -9 10 C-9.66 9.34 -10.32 8.68 -11 8 C-10.8125 5 -10.8125 5 -10 2 C-6.31282562 -0.45811625 -4.35654296 -0.31118164 0 0 Z " fill="#714C37" transform="translate(205,437)"/>
<path d="M0 0 C3 2 3 2 4 5.8125 C4.30573927 9.30939295 4.06975139 9.89537292 2 13 C-1.62401085 15.41600723 -3.72824881 15.41879914 -8 15 C-8.33 15.66 -8.66 16.32 -9 17 C-9.66 17 -10.32 17 -11 17 C-10.67 15.35 -10.34 13.7 -10 12 C-8.88625 11.896875 -7.7725 11.79375 -6.625 11.6875 C-5.42875 11.460625 -4.2325 11.23375 -3 11 C-1.06604999 8.09907498 -0.69868059 7.10325263 -0.375 3.8125 C-0.25125 2.554375 -0.1275 1.29625 0 0 Z " fill="#B7643F" transform="translate(219,158)"/>
<path d="M0 0 C0.74121094 0.0825 1.48242188 0.165 2.24609375 0.25 C2.24609375 0.91 2.24609375 1.57 2.24609375 2.25 C0.890625 3.51171875 0.890625 3.51171875 -0.94140625 4.9375 C-5.81277774 8.97068004 -9.01772285 13.58219153 -11.75390625 19.25 C-12.72972384 20.60113205 -13.72420366 21.93946944 -14.75390625 23.25 C-15.43351791 16.45388335 -12.82927434 12.03593253 -8.8828125 6.73828125 C-3.55497701 0.32272132 -3.55497701 0.32272132 0 0 Z " fill="#54281B" transform="translate(276.75390625,130.75)"/>
<path d="M0 0 C0.33 0 0.66 0 1 0 C1.02505615 1.18029785 1.0501123 2.3605957 1.07592773 3.57666016 C1.17036506 7.97129475 1.270496 12.36578464 1.37231445 16.76025391 C1.41552627 18.65930792 1.4572106 20.55839734 1.49731445 22.45751953 C1.5553515 25.19314223 1.61894827 27.92858894 1.68359375 30.6640625 C1.70866249 31.93003769 1.70866249 31.93003769 1.73423767 33.22158813 C1.84271288 37.57456334 2.14811288 41.71327977 3 46 C2.34 45.67 1.68 45.34 1 45 C1 44.01 1 43.02 1 42 C0.34 42 -0.32 42 -1 42 C-1.9802248 36.31160882 -2.11948801 30.82705667 -2.0625 25.0625 C-2.05573242 23.75055664 -2.05573242 23.75055664 -2.04882812 22.41210938 C-2.03714834 20.27470953 -2.01921689 18.13734537 -2 16 C-1.67 16 -1.34 16 -1 16 C-0.67 10.72 -0.34 5.44 0 0 Z " fill="#B46140" transform="translate(261,272)"/>
<path d="M0 0 C0.33 0 0.66 0 1 0 C1.02464775 5.53588533 1.04283496 11.071739 1.05493164 16.60766602 C1.05997244 18.4924373 1.06680498 20.37720465 1.07543945 22.26196289 C1.08751617 24.96501636 1.09323068 27.66801831 1.09765625 30.37109375 C1.10281754 31.21900986 1.10797882 32.06692596 1.11329651 32.9405365 C1.11349195 34.96071068 1.06206211 36.98077934 1 39 C0 40 0 40 -1.76586914 40.11352539 C-2.51473389 40.10828857 -3.26359863 40.10305176 -4.03515625 40.09765625 C-4.84404297 40.09443359 -5.65292969 40.09121094 -6.48632812 40.08789062 C-7.33646484 40.07951172 -8.18660156 40.07113281 -9.0625 40.0625 C-9.91650391 40.05798828 -10.77050781 40.05347656 -11.65039062 40.04882812 C-13.76695663 40.03700373 -15.88348685 40.01906769 -18 40 C-17.67 39.01 -17.34 38.02 -17 37 C-11.39 37.33 -5.78 37.66 0 38 C0 25.46 0 12.92 0 0 Z " fill="#683210" transform="translate(277,171)"/>
<path d="M0 0 C0.99 0.33 1.98 0.66 3 1 C3 6.94 3 12.88 3 19 C2.01 19.33 1.02 19.66 0 20 C-1.5220959 18.4779041 -1.12959521 17.11789918 -1.1328125 15 C-1.13410156 14.195625 -1.13539063 13.39125 -1.13671875 12.5625 C-1.13285156 11.716875 -1.12898438 10.87125 -1.125 10 C-1.12886719 9.154375 -1.13273437 8.30875 -1.13671875 7.4375 C-1.13542969 6.633125 -1.13414062 5.82875 -1.1328125 5 C-1.13168457 4.2575 -1.13055664 3.515 -1.12939453 2.75 C-1 1 -1 1 0 0 Z " fill="#73402D" transform="translate(320,437)"/>
<path d="M0 0 C3.92226692 1.30742231 4.42005914 2.92988044 6.5 6.4375 C9.09095852 10.8197578 9.09095852 10.8197578 13 14 C13 14.66 13 15.32 13 16 C13.99 16.33 14.98 16.66 16 17 C16 17.33 16 17.66 16 18 C13.75390625 18.25 13.75390625 18.25 11 18 C5.41025635 13.50322299 1.83087082 7.4874123 -1 1 C-0.67 0.67 -0.34 0.34 0 0 Z " fill="#AF6741" transform="translate(263,319)"/>
<path d="M0 0 C-0.50295053 4.40081711 -1.77209887 6.9419884 -5 10 C-8.5625 10.9375 -8.5625 10.9375 -12 11 C-12.99 10.34 -13.98 9.68 -15 9 C-13.05063872 6.61744733 -11.88308087 5.96258588 -8.875 5 C-7.92625 4.67 -6.9775 4.34 -6 4 C-5.67 3.01 -5.34 2.02 -5 1 C-2 0 -2 0 0 0 Z " fill="#684433" transform="translate(353,446)"/>
<path d="M0 0 C0.66 0 1.32 0 2 0 C2 1.32 2 2.64 2 4 C1.34 4 0.68 4 0 4 C-0.185625 4.61875 -0.37125 5.2375 -0.5625 5.875 C-2.78344031 9.15812915 -5.18886405 9.26236078 -9 10 C-11.6934181 10.14101665 -14.29923045 10.09476384 -17 10 C-16.67 9.01 -16.34 8.02 -16 7 C-13.0249458 6.06832645 -10.0397142 5.53387888 -6.98046875 4.94140625 C-3.64144138 3.88674623 -2.32451161 2.54390372 0 0 Z " fill="#61281C" transform="translate(318,402)"/>
<path d="M0 0 C2 2 2 2 2.375 5.4375 C2.21208214 11.80293357 0.19608696 18.61155505 -4.140625 23.328125 C-5.06101562 24.15570313 -5.06101562 24.15570313 -6 25 C-4.89309248 18.59406714 -3.66054831 12.28636144 -2 6 C-1.34 6 -0.68 6 0 6 C0 4.02 0 2.04 0 0 Z " fill="#B36440" transform="translate(398,251)"/>
<path d="M0 0 C1.12329712 0.07069702 1.12329712 0.07069702 2.26928711 0.14282227 C3.07817383 0.19116211 3.88706055 0.23950195 4.72045898 0.28930664 C5.99566406 0.37341797 5.99566406 0.37341797 7.29663086 0.45922852 C8.57763672 0.53753906 8.57763672 0.53753906 9.88452148 0.61743164 C12.00135081 0.74751612 14.1177833 0.88402822 16.23413086 1.02172852 C16.23413086 1.68172852 16.23413086 2.34172852 16.23413086 3.02172852 C11.28413086 3.35172852 6.33413086 3.68172852 1.23413086 4.02172852 C0.57413086 5.67172852 -0.08586914 7.32172852 -0.76586914 9.02172852 C0.88413086 9.02172852 2.53413086 9.02172852 4.23413086 9.02172852 C4.23413086 9.35172852 4.23413086 9.68172852 4.23413086 10.02172852 C1.35913086 10.14672852 1.35913086 10.14672852 -1.76586914 10.02172852 C-2.42586914 9.36172852 -3.08586914 8.70172852 -3.76586914 8.02172852 C-3.06551754 0.03772032 -3.06551754 0.03772032 0 0 Z " fill="#64331E" transform="translate(191.765869140625,373.978271484375)"/>
<path d="M0 0 C7.74136601 -0.10920422 15.31395526 0.02840067 23 1 C23 1.66 23 2.32 23 3 C17.041533 5.9792335 7.44643969 3.67476752 1 3 C0.67 2.01 0.34 1.02 0 0 Z " fill="#A85B37" transform="translate(363,239)"/>
<path d="M0 0 C0.66 0.66 1.32 1.32 2 2 C4.57061311 2.64767793 4.57061311 2.64767793 7 3 C7 3.66 7 4.32 7 5 C4.10447146 6.44776427 1.77050202 5.92711665 -1.4375 5.6875 C-3.16806641 5.56955078 -3.16806641 5.56955078 -4.93359375 5.44921875 C-8 5 -8 5 -11 3 C-7.19819614 0.31637374 -4.65620796 -0.51735644 0 0 Z " fill="#BE5D38" transform="translate(275,238)"/>
<path d="M0 0 C2.12493141 -0.02693575 4.24995912 -0.04636628 6.375 -0.0625 C7.55835938 -0.07410156 8.74171875 -0.08570313 9.9609375 -0.09765625 C13 0 13 0 15 1 C15 1.99 15 2.98 15 4 C11.98968256 4.93423645 11.13349732 5.04449911 8 4 C6.43881572 3.93259135 4.8749748 3.91485544 3.3125 3.9375 C2.50425781 3.94652344 1.69601562 3.95554687 0.86328125 3.96484375 C0.24839844 3.97644531 -0.36648438 3.98804688 -1 4 C-0.67 2.68 -0.34 1.36 0 0 Z " fill="#6C4536" transform="translate(294,437)"/>
<path d="M0 0 C3.87135542 1.63149978 6.64618197 4.14160042 9.75 6.9375 C10.73484375 7.81277344 11.7196875 8.68804687 12.734375 9.58984375 C15 12 15 12 15 15 C14.34 15 13.68 15 13 15 C13 14.34 13 13.68 13 13 C11.68 12.67 10.36 12.34 9 12 C9 11.34 9 10.68 9 10 C8.38125 9.690625 7.7625 9.38125 7.125 9.0625 C5.75 8.375 4.375 7.6875 3 7 C3 6.34 3 5.68 3 5 C2.01 5 1.02 5 0 5 C0 3.35 0 1.7 0 0 Z " fill="#B66944" transform="translate(323,286)"/>
<path d="M0 0 C6.15234375 -0.09765625 6.15234375 -0.09765625 8 0 C9 1 9 1 9.11352539 3.86743164 C9.10828857 5.11903076 9.10305176 6.37062988 9.09765625 7.66015625 C9.0962413 8.32462265 9.09482635 8.98908905 9.09336853 9.6736908 C9.08775518 11.80333899 9.07520054 13.93288339 9.0625 16.0625 C9.05748671 17.50325369 9.05292351 18.94400903 9.04882812 20.38476562 C9.03778145 23.92321102 9.02050792 27.46159539 9 31 C8.67 31 8.34 31 8 31 C7.16220564 21.29056184 6.87723383 11.73944972 7 2 C4.69 2 2.38 2 0 2 C0 1.34 0 0.68 0 0 Z " fill="#D4632B" transform="translate(252,271)"/>
<path d="M0 0 C4.62 0 9.24 0 14 0 C14 8.91 14 17.82 14 27 C13.67 27 13.34 27 13 27 C13 19.08 13 11.16 13 3 C10.03 3 7.06 3 4 3 C2.68 2.67 1.36 2.34 0 2 C0 1.34 0 0.68 0 0 Z " fill="#2A130D" transform="translate(189,383)"/>
<path d="M0 0 C0.495 0.825 0.99 1.65 1.5 2.5 C3.66272692 5.15002759 3.66272692 5.15002759 6.046875 5.33203125 C8.03425598 5.31441262 10.01940609 5.16504949 12 5 C11.67 6.65 11.34 8.3 11 10 C9.54257537 10.08096803 8.08387193 10.13917774 6.625 10.1875 C5.81289062 10.22230469 5.00078125 10.25710938 4.1640625 10.29296875 C3.44992188 10.19628906 2.73578125 10.09960938 2 10 C-0.42203285 6.36695072 0 4.26160957 0 0 Z " fill="#6A473A" transform="translate(220,446)"/>
<path d="M0 0 C1.77007714 -0.08114106 3.54122098 -0.13925505 5.3125 -0.1875 C6.29863281 -0.22230469 7.28476562 -0.25710938 8.30078125 -0.29296875 C11 0 11 0 12.875 1.3125 C14 3 14 3 13.6875 6.1875 C13.460625 7.115625 13.23375 8.04375 13 9 C12.01 8.67 11.02 8.34 10 8 C9.55527344 7.01773437 9.55527344 7.01773437 9.1015625 6.015625 C8.17234651 3.79794507 8.17234651 3.79794507 5.8359375 3.171875 C4.61777344 2.96304687 4.61777344 2.96304687 3.375 2.75 C2.55773437 2.60046875 1.74046875 2.4509375 0.8984375 2.296875 C-0.04128906 2.14992188 -0.04128906 2.14992188 -1 2 C-0.67 1.34 -0.34 0.68 0 0 Z " fill="#765243" transform="translate(338,439)"/>
<path d="M0 0 C7.75 -0.125 7.75 -0.125 10 1 C11.54023996 1.06950541 13.08334988 1.08452357 14.625 1.0625 C15.44226563 1.05347656 16.25953125 1.04445313 17.1015625 1.03515625 C17.72804688 1.02355469 18.35453125 1.01195312 19 1 C19 1.66 19 2.32 19 3 C19.99 3.33 20.98 3.66 22 4 C14.00044925 5.45446377 7.42950278 4.35525932 0 1 C0 0.67 0 0.34 0 0 Z " fill="#C75E36" transform="translate(346,300)"/>
<path d="M0 0 C0.33 0 0.66 0 1 0 C1.66 0 2.32 0 3 0 C1.2722114 4.05136637 -0.51965587 5.40163014 -4.42578125 7.25 C-9.50223693 8.72902806 -14.76821148 8.28711035 -20 8 C-20 7.67 -20 7.34 -20 7 C-19.34773438 6.96261719 -18.69546875 6.92523438 -18.0234375 6.88671875 C-12.68377043 6.48506238 -8.6795908 5.83238391 -4 3 C-4.99 2.34 -5.98 1.68 -7 1 C-4.52930595 -0.23534702 -2.73258157 -0.07006619 0 0 Z " fill="#B5572F" transform="translate(378,293)"/>
<path d="M0 0 C1.875 0.125 1.875 0.125 4 1 C5.25 4.0625 5.25 4.0625 6 7 C5.01 7.33 4.02 7.66 3 8 C3.99 8.33 4.98 8.66 6 9 C6 9.66 6 10.32 6 11 C3.03 10.01 0.06 9.02 -3 8 C-2.67 6.68 -2.34 5.36 -2 4 C-2.66 4 -3.32 4 -4 4 C-4 3.34 -4 2.68 -4 2 C-1.525 2.495 -1.525 2.495 1 3 C0.67 2.01 0.34 1.02 0 0 Z " fill="#BA5A37" transform="translate(226,204)"/>
<path d="M0 0 C0.66 0 1.32 0 2 0 C2.12117187 0.68707031 2.24234375 1.37414062 2.3671875 2.08203125 C2.53476563 2.98308594 2.70234375 3.88414062 2.875 4.8125 C3.03742188 5.70582031 3.19984375 6.59914062 3.3671875 7.51953125 C3.91188449 10.22727846 3.91188449 10.22727846 6 13 C5.625 15.1875 5.625 15.1875 5 17 C1.77034225 14.26721267 0.16516261 12.66065045 -0.875 8.5 C-0.98545475 5.40726707 -0.80986267 2.96949647 0 0 Z " fill="#B46740" transform="translate(252,213)"/>
<path d="M0 0 C0.66 0 1.32 0 2 0 C3.41514574 2.83029148 3.20780992 5.28379133 3.25 8.4375 C3.27578125 9.59121094 3.3015625 10.74492187 3.328125 11.93359375 C3 15 3 15 1.484375 16.91015625 C0.99453125 17.26980469 0.5046875 17.62945312 0 18 C0 16.33333333 0 14.66666667 0 13 C-0.66 12.67 -1.32 12.34 -2 12 C-1.85962479 10.18706911 -1.71255111 8.3746557 -1.5625 6.5625 C-1.48128906 5.55316406 -1.40007812 4.54382813 -1.31640625 3.50390625 C-1 1 -1 1 0 0 Z " fill="#5D3A2A" transform="translate(281,437)"/>
<path d="M0 0 C0.99 0 1.98 0 3 0 C2.67 4.29 2.34 8.58 2 13 C0.68 13 -0.64 13 -2 13 C-2.33 9.04 -2.66 5.08 -3 1 C-2.34 1.66 -1.68 2.32 -1 3 C-0.67 2.01 -0.34 1.02 0 0 Z " fill="#6A3B2E" transform="translate(365,443)"/>
<path d="M0 0 C0.66 0.66 1.32 1.32 2 2 C-1.3 2.33 -4.6 2.66 -8 3 C-7.01 3.66 -6.02 4.32 -5 5 C-5.94875 5.226875 -6.8975 5.45375 -7.875 5.6875 C-11.19323388 6.69083714 -11.19323388 6.69083714 -12.375 9.625 C-12.58125 10.40875 -12.7875 11.1925 -13 12 C-13.33 12 -13.66 12 -14 12 C-13.50958904 5.62465753 -13.50958904 5.62465753 -11.0625 2.625 C-7.33397702 -0.31262416 -4.71880401 -0.25279307 0 0 Z " fill="#6A4231" transform="translate(346,437)"/>
<path d="M0 0 C1.98 0 3.96 0 6 0 C4.86092693 3.41721921 3.59062977 4.55740622 1 7 C0.2575 7.7425 -0.485 8.485 -1.25 9.25 C-1.8275 9.8275 -2.405 10.405 -3 11 C-4 8 -4 8 -3.22265625 5.95703125 C-2.83980469 5.24933594 -2.45695313 4.54164063 -2.0625 3.8125 C-1.68222656 3.09707031 -1.30195313 2.38164062 -0.91015625 1.64453125 C-0.60980469 1.10183594 -0.30945313 0.55914062 0 0 Z " fill="#5B271C" transform="translate(155,375)"/>
<path d="M0 0 C1.85772162 0.08984301 3.71247985 0.24611861 5.5625 0.4375 C7.08037109 0.59025391 7.08037109 0.59025391 8.62890625 0.74609375 C9.80259766 0.87177734 9.80259766 0.87177734 11 1 C11 1.66 11 2.32 11 3 C7.7 3 4.4 3 1 3 C1.33 5.31 1.66 7.62 2 10 C1.01 10.33 0.02 10.66 -1 11 C-1.02688151 9.35425434 -1.04634123 7.70838587 -1.0625 6.0625 C-1.07410156 5.14597656 -1.08570313 4.22945313 -1.09765625 3.28515625 C-1 1 -1 1 0 0 Z " fill="#643217" transform="translate(384,374)"/>
<path d="M0 0 C0.66 0.99 1.32 1.98 2 3 C-3.73204775 8.05768919 -8.40657831 9.30373687 -16 9 C-13.35261084 7.5393715 -12.10551666 7 -9 7 C-9 6.34 -9 5.68 -9 5 C-8.43410156 4.72285156 -7.86820312 4.44570313 -7.28515625 4.16015625 C-6.55167969 3.79792969 -5.81820313 3.43570312 -5.0625 3.0625 C-3.96615234 2.52302734 -3.96615234 2.52302734 -2.84765625 1.97265625 C-1.03750973 1.13628173 -1.03750973 1.13628173 0 0 Z " fill="#AF643F" transform="translate(314,320)"/>
<path d="M0 0 C2.71925978 2.39421706 4.04281172 4.85695561 5.5625 8.125 C7.04252349 11.76216915 7.04252349 11.76216915 10 14 C11.05008653 15.97416268 12.04987876 17.97582866 13 20 C13.33 20.66 13.66 21.32 14 22 C13.01 22 12.02 22 11 22 C10.67 20.68 10.34 19.36 10 18 C9.34 18 8.68 18 8 18 C7.73445313 17.43410156 7.46890625 16.86820312 7.1953125 16.28515625 C6.84210938 15.55167969 6.48890625 14.81820313 6.125 14.0625 C5.77695312 13.33160156 5.42890625 12.60070312 5.0703125 11.84765625 C4.1315023 9.83667541 4.1315023 9.83667541 2 9 C1.3671875 6.93359375 1.3671875 6.93359375 0.875 4.4375 C0.70742188 3.61121094 0.53984375 2.78492188 0.3671875 1.93359375 C0.24601562 1.29550781 0.12484375 0.65742188 0 0 Z " fill="#B05B2E" transform="translate(318,259)"/>
<path d="M0 0 C4.29 0 8.58 0 13 0 C12.67 0.99 12.34 1.98 12 3 C7.38 3.33 2.76 3.66 -2 4 C-2 3.34 -2 2.68 -2 2 C-1.34 2 -0.68 2 0 2 C0 1.34 0 0.68 0 0 Z " fill="#582C1E" transform="translate(292,123)"/>
<path d="M0 0 C2.45840605 -0.02691685 4.91651882 -0.04679802 7.375 -0.0625 C8.07367188 -0.07087891 8.77234375 -0.07925781 9.4921875 -0.08789062 C14.7734375 -0.11328125 14.7734375 -0.11328125 17 1 C17 1.99 17 2.98 17 4 C14.53991222 3.91320858 12.08356483 3.80639045 9.625 3.6875 C8.92632812 3.66494141 8.22765625 3.64238281 7.5078125 3.61914062 C5.4765625 3.51171875 5.4765625 3.51171875 2 3 C1.34 2.01 0.68 1.02 0 0 Z " fill="#613510" transform="translate(214,374)"/>
<path d="M0 0 C-0.33 3.3 -0.66 6.6 -1 10 C-1.66 10 -2.32 10 -3 10 C-3 9.34 -3 8.68 -3 8 C-3.99 8.33 -4.98 8.66 -6 9 C-7.35439668 6.29120665 -7.06501451 3.99066732 -7 1 C-6.01 2.485 -6.01 2.485 -5 4 C-4.34 4 -3.68 4 -3 4 C-3 3.01 -3 2.02 -3 1 C-1 0 -1 0 0 0 Z " fill="#4A1F11" transform="translate(398,227)"/>
<path d="M0 0 C0.33 0.66 0.66 1.32 1 2 C0.67 2.66 0.34 3.32 0 4 C2.64 4 5.28 4 8 4 C8 4.66 8 5.32 8 6 C5.47524538 7.26237731 3.68799534 7.09856404 0.875 7.0625 C-0.03507813 7.05347656 -0.94515625 7.04445313 -1.8828125 7.03515625 C-2.58148438 7.02355469 -3.28015625 7.01195312 -4 7 C-3.67 5.02 -3.34 3.04 -3 1 C-2.01 0.67 -1.02 0.34 0 0 Z " fill="#5C2D1F" transform="translate(234,412)"/>
<path d="M0 0 C0.33 0 0.66 0 1 0 C1.05423638 1.91635217 1.09289963 3.83314925 1.125 5.75 C1.14820313 6.81734375 1.17140625 7.8846875 1.1953125 8.984375 C1.00347734 11.94630989 0.65414136 13.56473633 -1 16 C-3.125 16.75 -3.125 16.75 -5 17 C-5.33 15.68 -5.66 14.36 -6 13 C-2.25 10 -2.25 10 0 10 C0 6.7 0 3.4 0 0 Z " fill="#704B3A" transform="translate(281,440)"/>
<path d="M0 0 C0.33 0 0.66 0 1 0 C1 6.27 1 12.54 1 19 C0.34 18.67 -0.32 18.34 -1 18 C-2.60560039 12.45338048 -1.86417358 6.63633216 -1 1 C-0.67 0.67 -0.34 0.34 0 0 Z " fill="#5E140D" transform="translate(216,399)"/>
<path d="M0 0 C2 0 2 0 4.125 2 C4.74375 2.66 5.3625 3.32 6 4 C6 3.34 6 2.68 6 2 C8.16874252 2.50603992 9.99967627 2.99983813 12 4 C11.67 4.66 11.34 5.32 11 6 C9.68 5.34 8.36 4.68 7 4 C7 4.99 7 5.98 7 7 C5.02 7.33 3.04 7.66 1 8 C1.020625 7.236875 1.04125 6.47375 1.0625 5.6875 C1.12942841 2.89814214 1.12942841 2.89814214 0 0 Z " fill="#BD5831" transform="translate(338,288)"/>
<path d="M0 0 C2.475 0.99 2.475 0.99 5 2 C5 4.62113708 4.68707555 6.50935112 4 9 C1.36 9 -1.28 9 -4 9 C-4 8.67 -4 8.34 -4 8 C-1.69 8 0.62 8 3 8 C2.10664203 5.64214682 2.10664203 5.64214682 -1.0625 4.875 C-2.5165625 4.441875 -2.5165625 4.441875 -4 4 C-2.68 3.34 -1.36 2.68 0 2 C0 1.34 0 0.68 0 0 Z " fill="#603322" transform="translate(201,444)"/>
<path d="M0 0 C-0.33 0.66 -0.66 1.32 -1 2 C-3.50390625 2.4140625 -3.50390625 2.4140625 -6.5625 2.625 C-7.57441406 2.69976562 -8.58632813 2.77453125 -9.62890625 2.8515625 C-10.41136719 2.90054688 -11.19382812 2.94953125 -12 3 C-12 3.66 -12 4.32 -12 5 C-12.66 5 -13.32 5 -14 5 C-14 5.66 -14 6.32 -14 7 C-14.66 7 -15.32 7 -16 7 C-15.70926678 4.18957887 -15.18436938 3.16652718 -13.0625 1.25 C-8.70270059 -0.52950996 -4.64846562 -0.24370596 0 0 Z " fill="#A15534" transform="translate(344,213)"/>
<path d="M0 0 C0.33 1.32 0.66 2.64 1 4 C1.66 4 2.32 4 3 4 C3.33 7.3 3.66 10.6 4 14 C3.34 14 2.68 14 2 14 C-1.62870159 4.58997722 -1.62870159 4.58997722 0 0 Z " fill="#692C18" transform="translate(261,159)"/>
<path d="M0 0 C1.5625 1.1875 1.5625 1.1875 3 3 C2.57894737 7.42105263 2.57894737 7.42105263 1 9 C-1.67058851 9.14115161 -4.32432238 9.04247107 -7 9 C-7 8.67 -7 8.34 -7 8 C-5.02 7.34 -3.04 6.68 -1 6 C-1.33 4.35 -1.66 2.7 -2 1 C-1.34 0.67 -0.68 0.34 0 0 Z " fill="#765235" transform="translate(206,446)"/>
<path d="M0 0 C2.97 0 5.94 0 9 0 C9.33 1.32 9.66 2.64 10 4 C6.04 3.67 2.08 3.34 -2 3 C-1.34 2.67 -0.68 2.34 0 2 C0 1.34 0 0.68 0 0 Z " fill="#612A1C" transform="translate(415,374)"/>
<path d="M0 0 C4.03384128 2.07143201 5.92856799 3.96615872 8 8 C2.69520066 8 1.81017373 6.4637943 -2 3 C-1.34 2.01 -0.68 1.02 0 0 Z " fill="#BB6C49" transform="translate(303,241)"/>
<path d="M0 0 C2.31 0.66 4.62 1.32 7 2 C7 2.66 7 3.32 7 4 C7.66 4.33 8.32 4.66 9 5 C4.02906176 4.58846263 -0.44508386 4.20399168 -5 2 C-4.360625 1.855625 -3.72125 1.71125 -3.0625 1.5625 C-1.02454854 1.18992819 -1.02454854 1.18992819 0 0 Z " fill="#C05A39" transform="translate(355,242)"/>
<path d="M0 0 C1.65 0.33 3.3 0.66 5 1 C5 1.99 5 2.98 5 4 C6.65 4 8.3 4 10 4 C9.67 4.66 9.34 5.32 9 6 C4.545 5.01 4.545 5.01 0 4 C0 2.68 0 1.36 0 0 Z " fill="#654332" transform="translate(390,451)"/>
<path d="M0 0 C2 0 2 0 3.5078125 1.42578125 C4.30832031 2.35970703 4.30832031 2.35970703 5.125 3.3125 C5.66382813 3.92738281 6.20265625 4.54226563 6.7578125 5.17578125 C8 7 8 7 8 10 C6.35 10 4.7 10 3 10 C3.061875 9.236875 3.12375 8.47375 3.1875 7.6875 C2.96666486 4.52219632 2.30301466 4.01513783 0 2 C0 1.34 0 0.68 0 0 Z " fill="#67392C" transform="translate(369,442)"/>
<path d="M0 0 C3.63 0 7.26 0 11 0 C8 3 8 3 5.95703125 3.29296875 C3.97135417 3.1953125 1.98567708 3.09765625 0 3 C0 2.01 0 1.02 0 0 Z " fill="#492315" transform="translate(386,383)"/>
<path d="M0 0 C2.4375 0.8125 2.4375 0.8125 5 2 C5.33 2.99 5.66 3.98 6 5 C6.99 5 7.98 5 9 5 C9 6.32 9 7.64 9 9 C5.18063472 7.44396229 2.73955562 5.04395069 0 2 C0 1.34 0 0.68 0 0 Z " fill="#C06942" transform="translate(331,286)"/>
<path d="M0 0 C3.63 0.33 7.26 0.66 11 1 C11 1.66 11 2.32 11 3 C8.01405576 4.49297212 5.29146376 4.11755228 2 4 C1.34 3.67 0.68 3.34 0 3 C0 2.01 0 1.02 0 0 Z " fill="#CF6B4C" transform="translate(271,240)"/>
<path d="M0 0 C1.09570312 0.10183594 2.19140625 0.20367187 3.3203125 0.30859375 C4.16335938 0.39238281 5.00640625 0.47617187 5.875 0.5625 C5.875 1.2225 5.875 1.8825 5.875 2.5625 C1.255 2.5625 -3.365 2.5625 -8.125 2.5625 C-8.125 1.9025 -8.125 1.2425 -8.125 0.5625 C-5.28943413 -0.85528293 -3.1341294 -0.30007622 0 0 Z " fill="#5F321E" transform="translate(276.125,416.4375)"/>
<path d="M0 0 C0.99 0 1.98 0 3 0 C3.99 2.31 4.98 4.62 6 7 C3 9 3 9 0.8125 8.625 C0.214375 8.41875 -0.38375 8.2125 -1 8 C-0.01 7.34 0.98 6.68 2 6 C1.34 5.67 0.68 5.34 0 5 C0 3.35 0 1.7 0 0 Z " fill="#4F2117" transform="translate(471,411)"/>
<path d="M0 0 C3.96 0.33 7.92 0.66 12 1 C11.67 1.99 11.34 2.98 11 4 C8.69 4 6.38 4 4 4 C4 3.34 4 2.68 4 2 C2.68 1.67 1.36 1.34 0 1 C0 0.67 0 0.34 0 0 Z " fill="#B66744" transform="translate(228,211)"/>
<path d="M0 0 C0.99 0 1.98 0 3 0 C3 3.3 3 6.6 3 10 C2.01 9.67 1.02 9.34 0 9 C0 6.03 0 3.06 0 0 Z " fill="#755A49" transform="translate(267,440)"/>
<path d="M0 0 C2.64 0 5.28 0 8 0 C7.67 0.99 7.34 1.98 7 3 C2.545 3.495 2.545 3.495 -2 4 C-1.34 2.68 -0.68 1.36 0 0 Z " fill="#5E2A1C" transform="translate(355,374)"/>
<path d="M0 0 C0.66 0.33 1.32 0.66 2 1 C2 3.64 2 6.28 2 9 C0.68 9.33 -0.64 9.66 -2 10 C-1.34 6.7 -0.68 3.4 0 0 Z " fill="#B6633B" transform="translate(338,299)"/>
<path d="M0 0 C0.66 0 1.32 0 2 0 C2 0.99 2 1.98 2 3 C2.99 3 3.98 3 5 3 C5 3.66 5 4.32 5 5 C5.639375 5.103125 6.27875 5.20625 6.9375 5.3125 C7.618125 5.539375 8.29875 5.76625 9 6 C9.33 6.99 9.66 7.98 10 9 C5.58968355 8.49111733 3.10672401 5.96550928 0 3 C0 2.01 0 1.02 0 0 Z " fill="#B66D49" transform="translate(215,202)"/>
<path d="M0 0 C1.14889133 3.93905597 1.52582695 7.93565958 2 12 C1.34 12 0.68 12 0 12 C-2.08901197 8.60535554 -2.34361606 5.95158471 -2 2 C-1.34 1.34 -0.68 0.68 0 0 Z " fill="#B26A36" transform="translate(209,174)"/>
<path d="M0 0 C0.99 0.66 1.98 1.32 3 2 C2.67 3.98 2.34 5.96 2 8 C-1 7 -1 7 -2.6875 3.9375 C-3.120625 2.968125 -3.55375 1.99875 -4 1 C-2.68 1.33 -1.36 1.66 0 2 C0 1.34 0 0.68 0 0 Z " fill="#734739" transform="translate(349,440)"/>
<path d="M0 0 C0.66 0.99 1.32 1.98 2 3 C1 4 1 4 -1.28515625 4.09765625 C-2.65994141 4.08025391 -2.65994141 4.08025391 -4.0625 4.0625 C-4.98160156 4.05347656 -5.90070313 4.04445313 -6.84765625 4.03515625 C-7.55792969 4.02355469 -8.26820313 4.01195312 -9 4 C-9 3.01 -9 2.02 -9 1 C-6.03 1.33 -3.06 1.66 0 2 C0 1.34 0 0.68 0 0 Z " fill="#5E2E21" transform="translate(472,415)"/>
<path d="M0 0 C0.66 0.66 1.32 1.32 2 2 C3.98821313 2.39764263 5.98944339 2.73775349 8 3 C8 3.66 8 4.32 8 5 C5.36 5 2.72 5 0 5 C-0.66 3.68 -1.32 2.36 -2 1 C-1.34 0.67 -0.68 0.34 0 0 Z " fill="#622F1C" transform="translate(374,414)"/>
<path d="M0 0 C0.99 0 1.98 0 3 0 C3 0.99 3 1.98 3 3 C3.78375 2.938125 4.5675 2.87625 5.375 2.8125 C6.674375 2.9053125 6.674375 2.9053125 8 3 C8.99 4.485 8.99 4.485 10 6 C8.53890937 5.74445946 7.08111904 5.46999628 5.625 5.1875 C4.81289063 5.03667969 4.00078125 4.88585937 3.1640625 4.73046875 C1 4 1 4 -1 1 C-0.67 0.67 -0.34 0.34 0 0 Z " fill="#B86A45" transform="translate(342,295)"/>
<path d="M0 0 C5.94 1.485 5.94 1.485 12 3 C12 3.33 12 3.66 12 4 C7.48382401 4.07654536 3.40914783 4.10228696 -1 3 C-0.67 2.01 -0.34 1.02 0 0 Z " fill="#BC653C" transform="translate(219,269)"/>
<path d="M0 0 C0.99 0 1.98 0 3 0 C2.67 2.97 2.34 5.94 2 9 C1.34 8.67 0.68 8.34 0 8 C-0.6875 4.5 -0.6875 4.5 -1 1 C-0.67 0.67 -0.34 0.34 0 0 Z " fill="#B95538" transform="translate(202,177)"/>
<path d="M0 0 C0.66 0.33 1.32 0.66 2 1 C1.67 1.66 1.34 2.32 1 3 C2.65 3 4.3 3 6 3 C5.01 3.33 4.02 3.66 3 4 C3 4.66 3 5.32 3 6 C1.35 5.67 -0.3 5.34 -2 5 C-1.125 1.125 -1.125 1.125 0 0 Z " fill="#481D12" transform="translate(355,397)"/>
<path d="M0 0 C1.485 0.99 1.485 0.99 3 2 C3.66 1.34 4.32 0.68 5 0 C5.99 0.66 6.98 1.32 8 2 C7.34 2 6.68 2 6 2 C6.33 3.32 6.66 4.64 7 6 C4.0625 5.25 4.0625 5.25 1 4 C0.125 1.875 0.125 1.875 0 0 Z " fill="#5E3027" transform="translate(269,451)"/>
<path d="M0 0 C0.66 0 1.32 0 2 0 C2.33 1.65 2.66 3.3 3 5 C2.34 4.67 1.68 4.34 1 4 C0.67 6.97 0.34 9.94 0 13 C-0.66 12.67 -1.32 12.34 -2 12 C-1.85962479 10.18706911 -1.71255111 8.3746557 -1.5625 6.5625 C-1.48128906 5.55316406 -1.40007812 4.54382813 -1.31640625 3.50390625 C-1 1 -1 1 0 0 Z " fill="#673627" transform="translate(281,437)"/>
<path d="M0 0 C3.63 0 7.26 0 11 0 C11 0.99 11 1.98 11 3 C9.35333797 2.8864371 7.70763918 2.75882619 6.0625 2.625 C5.14597656 2.55539062 4.22945313 2.48578125 3.28515625 2.4140625 C2.15400391 2.20910156 2.15400391 2.20910156 1 2 C0.67 1.34 0.34 0.68 0 0 Z " fill="#632C1A" transform="translate(300,383)"/>
<path d="M0 0 C1.258125 -0.020625 2.51625 -0.04125 3.8125 -0.0625 C4.52019531 -0.07410156 5.22789062 -0.08570313 5.95703125 -0.09765625 C8 0 8 0 11 1 C11 1.99 11 2.98 11 4 C7.13351728 2.95902388 3.50538557 1.96301592 0 0 Z " fill="#671D12" transform="translate(157,374)"/>
<path d="M0 0 C1.0725 0.350625 2.145 0.70125 3.25 1.0625 C7.25435111 2.06715761 7.25435111 2.06715761 11 1 C11 1.99 11 2.98 11 4 C9.54119891 3.85892253 8.08296449 3.71197585 6.625 3.5625 C5.40683594 3.44068359 5.40683594 3.44068359 4.1640625 3.31640625 C2 3 2 3 0 2 C0 1.34 0 0.68 0 0 Z " fill="#AE693F" transform="translate(352,237)"/>
<path d="M0 0 C0 0.99 0 1.98 0 3 C-2.64 3 -5.28 3 -8 3 C-8.33 2.34 -8.66 1.68 -9 1 C-5.8035914 -0.06546953 -3.34252724 -0.07427838 0 0 Z " fill="#B96B48" transform="translate(297,239)"/>
<path d="M0 0 C0.66 0.33 1.32 0.66 2 1 C0.68 4.3 -0.64 7.6 -2 11 C-2.95904856 7.16380575 -2.91892116 5.67568464 -2 2 C-1.34 2 -0.68 2 0 2 C0 1.34 0 0.68 0 0 Z " fill="#AF6540" transform="translate(195,215)"/>
<path d="M0 0 C1.11375 0.1546875 1.11375 0.1546875 2.25 0.3125 C2.25 0.9725 2.25 1.6325 2.25 2.3125 C-0.72411124 3.55171302 -3.60262818 4.61308404 -6.75 5.3125 C-3.42692308 0.38942308 -3.42692308 0.38942308 0 0 Z " fill="#57301C" transform="translate(276.75,130.6875)"/>
<path d="M0 0 C-0.33 1.65 -0.66 3.3 -1 5 C-4.01031744 5.93423645 -4.86650268 6.04449911 -8 5 C-7.34 4.67 -6.68 4.34 -6 4 C-5.67 3.01 -5.34 2.02 -5 1 C-2 0 -2 0 0 0 Z " fill="#613E28" transform="translate(353,446)"/>
<path d="M0 0 C1.65 0.33 3.3 0.66 5 1 C5.33 2.32 5.66 3.64 6 5 C4.02 4.34 2.04 3.68 0 3 C0 2.01 0 1.02 0 0 Z " fill="#B96943" transform="translate(208,265)"/>
<path d="M0 0 C3.65316671 1.24976756 4.78065836 1.67098753 7 5 C6.67 5.66 6.34 6.32 6 7 C3.00675737 5.9024777 2.15389099 5.32317108 0.75 2.375 C0.5025 1.59125 0.255 0.8075 0 0 Z " fill="#B76641" transform="translate(239,215)"/>
<path d="M0 0 C0.33 0 0.66 0 1 0 C1 3.3 1 6.6 1 10 C0.67 9.34 0.34 8.68 0 8 C-0.66 8 -1.32 8 -2 8 C-2 6.02 -2 4.04 -2 2 C-1.34 2 -0.68 2 0 2 C0 1.34 0 0.68 0 0 Z " fill="#C06C41" transform="translate(255,184)"/>
<path d="M0 0 C2.89932357 2.39509338 3.50168276 4.31245243 4 8 C3.01 8 2.02 8 1 8 C-1.125 3.375 -1.125 3.375 0 0 Z " fill="#AC603F" transform="translate(204,183)"/>
<path d="M0 0 C-1.25 1.5 -1.25 1.5 -3 3 C-4.32 3 -5.64 3 -7 3 C-7 2.34 -7 1.68 -7 1 C-7.66 0.67 -8.32 0.34 -9 0 C-5.93109813 -1.53445094 -3.29905734 -0.54984289 0 0 Z " fill="#A76437" transform="translate(245,152)"/>
<path d="M0 0 C2.54115245 2.54115245 2.43562323 4.55221279 2.75390625 8.02734375 C2.96047055 10.2086702 2.96047055 10.2086702 4 13 C3.01 12.67 2.02 12.34 1 12 C0.67 8.04 0.34 4.08 0 0 Z " fill="#44271D" transform="translate(362,444)"/>
<path d="M0 0 C0.99 0.66 1.98 1.32 3 2 C2.01 2.33 1.02 2.66 0 3 C0.33 5.31 0.66 7.62 1 10 C0.01 10 -0.98 10 -2 10 C-1.125 2.25 -1.125 2.25 0 0 Z " fill="#80523C" transform="translate(335,442)"/>
<path d="M0 0 C3.3 0 6.6 0 10 0 C9.67 0.99 9.34 1.98 9 3 C2.84765625 2.4140625 2.84765625 2.4140625 1 2 C0.67 1.34 0.34 0.68 0 0 Z " fill="#6D4E43" transform="translate(394,439)"/>
<path d="M0 0 C2.97 0 5.94 0 9 0 C9 0.66 9 1.32 9 2 C7.68 2 6.36 2 5 2 C4.34 2.66 3.68 3.32 3 4 C2.01 3.67 1.02 3.34 0 3 C0 2.01 0 1.02 0 0 Z " fill="#B26235" transform="translate(214,268)"/>
<path d="M0 0 C1.65 0 3.3 0 5 0 C5.12375 0.639375 5.2475 1.27875 5.375 1.9375 C5.684375 2.9584375 5.684375 2.9584375 6 4 C6.66 4.33 7.32 4.66 8 5 C7.01 5.495 7.01 5.495 6 6 C5.34 5.67 4.68 5.34 4 5 C4 4.34 4 3.68 4 3 C2.68 2.34 1.36 1.68 0 1 C0 0.67 0 0.34 0 0 Z " fill="#B0693F" transform="translate(220,202)"/>
<path d="M0 0 C2.64 0 5.28 0 8 0 C8.33 1.32 8.66 2.64 9 4 C6.03 3.505 6.03 3.505 3 3 C3 2.34 3 1.68 3 1 C2.01 0.67 1.02 0.34 0 0 Z " fill="#602B1D" transform="translate(375,194)"/>
<path d="M0 0 C1.53202706 0.25195908 3.05257128 0.57596777 4.5625 0.9375 C5.38878906 1.13214844 6.21507812 1.32679688 7.06640625 1.52734375 C8.02353516 1.76130859 8.02353516 1.76130859 9 2 C7 4 7 4 4.5625 4.3125 C1.60720543 3.95209822 0.81112073 3.28773145 -1 1 C-0.67 0.67 -0.34 0.34 0 0 Z " fill="#64241A" transform="translate(354,407)"/>
<path d="M0 0 C2.97 0 5.94 0 9 0 C8.01 0.33 7.02 0.66 6 1 C6 1.66 6 2.32 6 3 C4.35 3 2.7 3 1 3 C0.67 2.01 0.34 1.02 0 0 Z " fill="#5E2A21" transform="translate(173,374)"/>
<path d="M0 0 C0.66 0.33 1.32 0.66 2 1 C1.34 2.98 0.68 4.96 0 7 C-0.99 7 -1.98 7 -3 7 C-1.125 1.125 -1.125 1.125 0 0 Z " fill="#A66235" transform="translate(398,272)"/>
<path d="M0 0 C1.98 0.66 3.96 1.32 6 2 C6 2.99 6 3.98 6 5 C4.35 4.67 2.7 4.34 1 4 C0.67 2.68 0.34 1.36 0 0 Z " fill="#AF6A38" transform="translate(259,236)"/>
<path d="M0 0 C0.33 0 0.66 0 1 0 C1 3.63 1 7.26 1 11 C0.67 10.01 0.34 9.02 0 8 C-0.66 8 -1.32 8 -2 8 C-2.20086443 4.28400809 -2.1519437 3.22791555 0 0 Z " fill="#A56D54" transform="translate(191,229)"/>
<path d="M0 0 C2 2 2 2 2.0625 4.5 C2.041875 5.325 2.02125 6.15 2 7 C2.33 7.66 2.66 8.32 3 9 C1.68 8.67 0.36 8.34 -1 8 C-1 5.16032769 -0.59732819 2.76264289 0 0 Z " fill="#775138" transform="translate(219,444)"/>
<path d="M0 0 C0.99 0.33 1.98 0.66 3 1 C2.67 1.66 2.34 2.32 2 3 C2.66 3 3.32 3 4 3 C4.33 3.99 4.66 4.98 5 6 C3.02 6 1.04 6 -1 6 C-0.34 5.67 0.32 5.34 1 5 C0.67 3.35 0.34 1.7 0 0 Z " fill="#6C4333" transform="translate(197,441)"/>
<path d="M0 0 C0 0.66 0 1.32 0 2 C-2.64 2 -5.28 2 -8 2 C-8 1.34 -8 0.68 -8 0 C-5.13822943 -1.43088528 -3.06624227 -0.59991697 0 0 Z " fill="#371911" transform="translate(148,418)"/>
<path d="M0 0 C0.66 0.99 1.32 1.98 2 3 C1.34 4.32 0.68 5.64 0 7 C-1.32 5.68 -2.64 4.36 -4 3 C-2.68 2.67 -1.36 2.34 0 2 C0 1.34 0 0.68 0 0 Z " fill="#50190C" transform="translate(145,397)"/>
<path d="M0 0 C0.66 0 1.32 0 2 0 C2.33 0.99 2.66 1.98 3 3 C2.67 3.66 2.34 4.32 2 5 C1.01 5 0.02 5 -1 5 C-1 5.66 -1 6.32 -1 7 C-1.66 7 -2.32 7 -3 7 C-1.125 2.25 -1.125 2.25 0 0 Z " fill="#AC653D" transform="translate(333,320)"/>
<path d="M0 0 C0.66 0.33 1.32 0.66 2 1 C1.01 3.31 0.02 5.62 -1 8 C-1.99 8 -2.98 8 -4 8 C-2.68 5.36 -1.36 2.72 0 0 Z " fill="#4F1C10" transform="translate(246,379)"/>
<path d="M0 0 C1.9375 0.8125 1.9375 0.8125 4 2 C4.33 2.99 4.66 3.98 5 5 C3.35 4.67 1.7 4.34 0 4 C0 2.68 0 1.36 0 0 Z " fill="#683023" transform="translate(324,379)"/>
<path d="M0 0 C1.98 0 3.96 0 6 0 C6 0.66 6 1.32 6 2 C5.05125 2.309375 4.1025 2.61875 3.125 2.9375 C0.13919592 3.87394742 0.13919592 3.87394742 -2 5 C-1.34 3.35 -0.68 1.7 0 0 Z " fill="#642F1E" transform="translate(155,375)"/>
<path d="M0 0 C-0.33 1.32 -0.66 2.64 -1 4 C-4.875 2.25 -4.875 2.25 -6 0 C-3 -1 -3 -1 0 0 Z " fill="#633320" transform="translate(408,241)"/>
<path d="M0 0 C0.33 0 0.66 0 1 0 C1.22162329 1.62324086 1.42689803 3.248721 1.625 4.875 C1.74101562 5.77992188 1.85703125 6.68484375 1.9765625 7.6171875 C1.98429687 8.40351563 1.99203125 9.18984375 2 10 C1.34 10.66 0.68 11.32 0 12 C-1.16063604 7.74433453 -0.76173392 4.3164922 0 0 Z " fill="#B0643F" transform="translate(326,227)"/>
<path d="M0 0 C1.65 0 3.3 0 5 0 C3.75453595 3.73639216 2.36595047 4.18756513 -1 6 C-0.67 4.02 -0.34 2.04 0 0 Z " fill="#B76A3B" transform="translate(239,157)"/>
<path d="M0 0 C-0.33 1.65 -0.66 3.3 -1 5 C-1.66 5 -2.32 5 -3 5 C-3 4.34 -3 3.68 -3 3 C-3.99 3 -4.98 3 -6 3 C-6 2.34 -6 1.68 -6 1 C-3.92446352 0.4465236 -2.15634036 0 0 0 Z " fill="#5F3F30" transform="translate(232,451)"/>
<path d="M0 0 C0.33 0.66 0.66 1.32 1 2 C1.99 2.33 2.98 2.66 4 3 C0.25 5 0.25 5 -2 5 C-2 3.68 -2 2.36 -2 1 C-1.34 0.67 -0.68 0.34 0 0 Z " fill="#5A2920" transform="translate(205,414)"/>
<path d="M0 0 C0.33 0 0.66 0 1 0 C1.33 2.31 1.66 4.62 2 7 C0.35 7 -1.3 7 -3 7 C-3.33 6.34 -3.66 5.68 -4 5 C-3.01 4.67 -2.02 4.34 -1 4 C-0.26676204 1.98491642 -0.26676204 1.98491642 0 0 Z " fill="#623124" transform="translate(214,412)"/>
<path d="M0 0 C0.66 0 1.32 0 2 0 C2.625 1.8125 2.625 1.8125 3 4 C2.01 5.485 2.01 5.485 1 7 C0.34 6.67 -0.32 6.34 -1 6 C-0.67 4.02 -0.34 2.04 0 0 Z " fill="#672011" transform="translate(319,395)"/>
<path d="M0 0 C0.5625 1.9375 0.5625 1.9375 1 4 C0 5 0 5 -2.5625 5.0625 C-3.7690625 5.0315625 -3.7690625 5.0315625 -5 5 C-3.35 3.35 -1.7 1.7 0 0 Z " fill="#B26746" transform="translate(328,329)"/>
</svg>
